<svg width="1082" height="574" viewBox="0 0 1082 574" fill="none" xmlns="http://www.w3.org/2000/svg">
<path d="M780.463 342.291C809.768 302.074 810.356 278.751 773.731 236.347M886.879 395.993C946.664 312.253 947.805 263.649 872.847 175.182M976.049 465.347C1085.88 319.076 1088.24 234.365 951.599 80.6011" stroke="#2E2E2E" stroke-width="50"/>
<path d="M701.165 274.012C717.645 284.058 718.237 307.696 702.268 318.03L509.624 442.697C492.582 453.726 469.755 441.484 469.243 421.042L463.083 175.188C462.57 154.746 484.774 142.105 502.361 152.825L701.165 274.012Z" fill="#2E2E2E"/>
<path fill-rule="evenodd" clip-rule="evenodd" d="M287 574C445.506 574 574 445.506 574 287C574 128.494 445.506 0 287 0C128.494 0 0 128.494 0 287C0 445.506 128.494 574 287 574ZM383.5 271C419.122 271 448 242.122 448 206.5C448 170.878 419.122 142 383.5 142C347.878 142 319 170.878 319 206.5C319 242.122 347.878 271 383.5 271Z" fill="#2E2E2E"/>
</svg>
