<svg width="326" height="335" viewBox="0 0 326 335" fill="none" xmlns="http://www.w3.org/2000/svg">
<path d="M0.489975 90.3009C0.489975 81.2338 11.5887 76.8471 17.7878 83.4641L71.5366 140.837C73.4272 142.855 76.0691 144 78.8344 144H171H254.823C257.787 144 260.598 142.685 262.498 140.411L307.815 86.1593C313.808 78.9856 325.49 83.223 325.49 92.5701V134C325.49 139.523 321.013 144 315.49 144H10.49C4.96713 144 0.489975 139.523 0.489975 134V90.3009Z" fill="#2E2E2E"/>
<rect x="1.48997" y="292" width="321" height="42" rx="10" fill="#2E2E2E"/>
<rect x="38.5682" y="95.2726" width="238.826" height="38.0927" rx="10" transform="rotate(90.1141 38.5682 95.2726)" fill="#2E2E2E"/>
<rect x="325.547" y="80.6461" width="65.235" height="324.436" rx="10" transform="rotate(90.1141 325.547 80.6461)" fill="#2E2E2E"/>
<rect x="325.49" y="95.0796" width="238.826" height="37.3612" rx="15" transform="rotate(90.1141 325.49 95.0796)" fill="#2E2E2E"/>
<rect width="38.7806" height="42.5935" rx="10" transform="matrix(-0.00193925 0.999998 -0.999998 -0.00204504 113.612 170.004)" fill="#2E2E2E"/>
<rect width="38.7806" height="42.5935" rx="10" transform="matrix(-0.00193925 0.999998 -0.999998 -0.00204504 111.828 227.08)" fill="#2E2E2E"/>
<rect width="38.7806" height="42.5935" rx="10" transform="matrix(-0.00193925 0.999998 -0.999998 -0.00204504 184.543 170.692)" fill="#2E2E2E"/>
<rect width="38.7806" height="42.5935" rx="10" transform="matrix(-0.00193925 0.999998 -0.999998 -0.00204504 184.543 227.732)" fill="#2E2E2E"/>
<rect width="38.7806" height="42.5935" rx="10" transform="matrix(-0.00193925 0.999998 -0.999998 -0.00204504 257.193 170.896)" fill="#2E2E2E"/>
<rect width="38.7806" height="42.5935" rx="10" transform="matrix(-0.00193925 0.999998 -0.999998 -0.00204504 257.193 227.972)" fill="#2E2E2E"/>
<rect x="75.4899" width="47" height="107" rx="23" fill="#2E2E2E"/>
<rect x="214.49" width="47" height="107" rx="23" fill="#2E2E2E"/>
</svg>
