<svg width="552" height="443" viewBox="0 0 552 443" fill="none" xmlns="http://www.w3.org/2000/svg">
<path d="M8 67.8405C29.5434 61.7059 99.0184 -23.1549 185.491 67.8405C271.964 158.836 362.027 82.5426 372.2 73C382.374 63.4574 471.756 -16.6796 531 67.8405M8 220.84C29.5434 214.706 99.0184 129.845 185.491 220.84C271.964 311.836 362.027 235.543 372.2 226C382.374 216.457 471.756 136.32 531 220.84M8 373.84C29.5434 367.706 99.0184 282.845 185.491 373.84C271.964 464.836 362.027 388.543 372.2 379C382.374 369.457 471.756 289.32 531 373.84" stroke="#2E2E2E" stroke-width="50"/>
</svg>
