<svg width="591" height="678" viewBox="0 0 591 678" fill="none" xmlns="http://www.w3.org/2000/svg">
<path d="M276.223 23.3425C286.222 11.2344 304.777 11.2344 314.776 23.3425L407.884 136.089C421.348 152.392 409.751 177.008 388.607 177.008H202.392C181.248 177.008 169.652 152.392 183.115 136.089L276.223 23.3425Z" fill="#2E2E2E"/>
<rect x="249.284" y="565.216" width="115.363" height="111.908" fill="#2E2E2E"/>
<path d="M151.722 383.104C160.413 373.889 172.519 368.666 185.186 368.666H413.862C426.964 368.666 439.445 374.254 448.172 384.027L522.561 467.328C549.031 496.971 527.991 543.968 488.25 543.968H106.618C66.2817 543.968 45.4781 495.75 73.1542 466.406L151.722 383.104Z" fill="#2E2E2E"/>
<path d="M185.132 219.033C193.871 208.811 206.646 202.926 220.095 202.926H377.61C391.491 202.926 404.63 209.194 413.364 219.983L455.61 272.172C479.956 302.248 458.551 347.115 419.856 347.115H175.475C136.202 347.115 114.991 301.072 140.512 271.222L185.132 219.033Z" fill="#2E2E2E"/>
</svg>
