<svg width="679" height="693" viewBox="0 0 679 693" fill="none" xmlns="http://www.w3.org/2000/svg">
<path d="M393.661 75.8291H80C63.4315 75.8291 50 89.2606 50 105.829V612.263C50 628.832 63.4315 642.263 80 642.263H548.189" stroke="#2E2E2E" stroke-width="100"/>
<path d="M613.021 297.625V612.263C613.021 628.832 599.59 642.263 583.021 642.263H505.536" stroke="#2E2E2E" stroke-width="100"/>
<path d="M265.132 365.183L524.226 52.1707C525.976 50.0558 529.105 49.748 531.234 51.4812L627.066 129.491C629.206 131.233 629.53 134.379 627.79 136.521L367.022 457.534C366.433 458.259 365.654 458.804 364.772 459.108L250.325 498.614C246.751 499.847 243.154 496.822 243.757 493.09L264.047 367.574C264.189 366.695 264.564 365.869 265.132 365.183Z" stroke="#2E2E2E" stroke-width="100"/>
</svg>
