<svg width="289" height="320" viewBox="0 0 289 320" fill="none" xmlns="http://www.w3.org/2000/svg">
<path d="M221.067 110.533C221.067 171.579 171.579 221.067 110.533 221.067C49.4875 221.067 0 171.579 0 110.533C0 49.4875 49.4875 0 110.533 0C171.579 0 221.067 49.4875 221.067 110.533ZM38.033 110.533C38.033 150.574 70.4925 183.034 110.533 183.034C150.574 183.034 183.034 150.574 183.034 110.533C183.034 70.4925 150.574 38.033 110.533 38.033C70.4925 38.033 38.033 70.4925 38.033 110.533Z" fill="#2E2E2E"/>
<path d="M255.573 228.934C280.433 259.188 276.731 279.595 259.932 293.399C243.134 307.202 219.601 309.174 194.74 278.92C169.88 248.665 140.996 183.671 157.794 169.868C174.593 156.064 230.713 198.679 255.573 228.934Z" fill="#2E2E2E"/>
</svg>
