<svg width="324" height="325" viewBox="0 0 324 325" fill="none" xmlns="http://www.w3.org/2000/svg">
<path d="M52.2 135.39L164.885 252.302L252.607 145.705L275 135.39L262.94 290.614H64.8524L52.2 135.39Z" fill="#2E2E2E"/>
<path d="M148.115 5.3561C155.991 -1.78527 168.009 -1.78526 175.885 5.35612L316.972 133.285C335.92 150.465 312.848 179.927 291.588 165.699L175.885 73.2356L175.817 73.618C174.724 79.7696 167.19 82.8891 160.95 83.2057C155.313 83.4917 148.667 81.503 146.779 76.1839L145.732 73.2356L32.4119 165.699C11.1516 179.927 -11.9196 150.465 7.02835 133.285L148.115 5.3561Z" fill="#2E2E2E"/>
<path d="M229.751 188.441C229.751 225.608 199.694 255.738 162.616 255.738C125.539 255.738 95.4812 225.608 95.4812 188.441C95.4812 151.274 125.539 121.145 162.616 121.145C199.694 121.145 229.751 151.274 229.751 188.441ZM122.335 188.441C122.335 210.741 140.37 228.819 162.616 228.819C184.863 228.819 202.897 210.741 202.897 188.441C202.897 166.141 184.863 148.063 162.616 148.063C140.37 148.063 122.335 166.141 122.335 188.441Z" fill="#2E2E2E"/>
<path d="M62.0367 127.53H112.695V184.511H62.0367V127.53Z" fill="#2E2E2E"/>
<path d="M212.045 135.39H262.704V192.371H212.045V135.39Z" fill="#2E2E2E"/>
<path d="M88.4626 304.787C89.4682 303.297 91.1497 302.404 92.9491 302.404H232.283C234.083 302.404 235.764 303.297 236.77 304.787L244.724 316.577C247.146 320.166 244.571 325 240.238 325H84.9942C80.6609 325 78.0861 320.166 80.5078 316.577L88.4626 304.787Z" fill="#2E2E2E"/>
<path d="M52.2 121.145H276.967V145.705H52.2V121.145Z" fill="#2E2E2E"/>
<path d="M148.981 52.6733C156.856 45.5365 168.869 45.5365 176.743 52.6733L249.522 118.631C264.248 131.977 253.442 156.359 233.65 154.445L164.853 147.791C163.529 147.663 162.195 147.663 160.871 147.791L92.0743 154.445C72.2825 156.359 61.4765 131.977 76.2021 118.631L148.981 52.6733Z" fill="#2E2E2E"/>
</svg>
