<?xml version="1.0" encoding="utf-8"?>
<!-- Generator: Adobe Illustrator 25.4.1, SVG Export Plug-In . SVG Version: 6.00 Build 0)  -->
<svg version="1.1" id="Layer_1" xmlns="http://www.w3.org/2000/svg" xmlns:xlink="http://www.w3.org/1999/xlink" x="0px" y="0px"
	 viewBox="0 0 137 137" style="enable-background:new 0 0 137 137;" xml:space="preserve">
<style type="text/css">
	.st0{fill:#3F3F3F;stroke:#E2D7C9;stroke-width:10;}
	.st1{fill:#F7EAD9;}
</style>
<path class="st0" d="M12,5h113c3.9,0,7,3.1,7,7v113c0,3.9-3.1,7-7,7H12c-3.9,0-7-3.1-7-7V12C5,8.1,8.1,5,12,5z"/>
<path class="st1" d="M121.5,102.5l0.5-0.4l-0.4-0.4L90.6,68.2l15-7.6l0.5-0.3l-0.3-0.5c-0.9-1.5-2.2-2.9-3.8-4
	c-1.5-1.1-3.3-1.9-5.2-2.3c-1.9-0.5-3.9-0.6-5.8-0.3c-2,0.2-3.9,0.8-5.6,1.7c-1.6,0.8-3,1.9-4.2,3.1L47.8,22l-0.3-0.4l-0.4,0.3
	c-3.2,2.5-5.5,6-6.5,10.3c-1.1,4.3-1,9.3,0.2,14.8c1.2,5.4,3.6,11.2,6.8,17c2,3.5,4.3,7,7,10.4l-3.3,2l0,0L15.6,98.1L15,98.4
	l0.4,0.5c1.3,1.8,3.6,2.8,6.6,3.2c3,0.4,6.7,0.1,10.9-0.8c4.2-0.9,8.8-2.4,13.7-4.4c4.8-2,9.7-4.6,14.4-7.4c1.6-1,3.3-2,4.8-3.1
	c3.3,3,6.7,5.8,10.3,8.2c5.7,3.9,11.6,7,17.3,9.1c5.7,2,11.1,3,15.9,2.8C114.1,106.3,118.2,104.9,121.5,102.5z"/>
</svg>
