<svg width="415" height="588" viewBox="0 0 415 588" fill="none" xmlns="http://www.w3.org/2000/svg">
<g filter="url(#filter0_d_562_67)">
<path d="M368.613 14.7446H35.3869C23.9864 14.7446 14.7445 23.9865 14.7445 35.387V368.613C14.7445 380.014 23.9864 389.256 35.3869 389.256H368.613C380.014 389.256 389.255 380.014 389.255 368.613V35.387C389.255 23.9865 380.014 14.7446 368.613 14.7446Z" fill="#91A3A6" stroke="#E2D7C9" stroke-width="15"/>
<g filter="url(#filter1_d_562_67)">
<path d="M362.53 306.786L364 305.672L362.745 304.318L268.993 203.111L314.361 180.208L315.988 179.387L315.03 177.837C312.155 173.173 308.265 169.096 303.598 165.832C298.932 162.568 293.575 160.179 287.839 158.793C282.102 157.406 276.091 157.048 270.147 157.735C264.203 158.421 258.434 160.141 253.17 162.798C248.331 165.241 244 168.436 240.388 172.231L139.308 63.1131L138.277 62L137.068 62.9168C127.235 70.37 120.526 80.9619 117.284 94.0051C114.046 107.029 114.33 122.227 118.031 138.703C121.732 155.183 128.791 172.671 138.777 190.175C144.858 200.834 151.958 211.381 159.911 221.595L149.817 227.605L149.804 227.613L41.5679 293.397L40 294.35L41.0936 295.823C45.0731 301.181 51.9527 304.416 60.9651 305.629C69.9928 306.845 81.199 306.043 93.9106 303.345C106.636 300.645 120.693 296.081 135.283 289.925C149.875 283.769 164.733 276.133 179.013 267.454C183.99 264.429 188.864 261.297 193.603 258.081C203.534 267.196 214.004 275.578 224.785 283.027C242.077 294.975 259.849 304.305 277.095 310.47C294.336 316.631 310.756 319.524 325.407 318.922C340.066 318.323 352.709 314.233 362.53 306.786Z" fill="#F7EAD9"/>
</g>
</g>
<path d="M24.83 437.6H7.93V539H24.83V437.6ZM73.97 509.1C73.97 502.427 72.6267 496.793 69.94 492.2C67.2533 487.52 63.7 483.967 59.28 481.54C54.9467 479.113 50.2667 477.9 45.24 477.9C40.3 477.9 35.88 479.157 31.98 481.67C28.1667 484.183 25.1333 487.78 22.88 492.46C20.6267 497.053 19.5 502.6 19.5 509.1C19.5 515.513 20.6267 521.06 22.88 525.74C25.1333 530.42 28.1667 534.017 31.98 536.53C35.88 539.043 40.3 540.3 45.24 540.3C50.2667 540.3 54.9467 539.087 59.28 536.66C63.7 534.233 67.2533 530.68 69.94 526C72.6267 521.32 73.97 515.687 73.97 509.1ZM56.55 509.1C56.55 512.653 55.8133 515.73 54.34 518.33C52.8667 520.93 50.8733 522.923 48.36 524.31C45.9333 525.697 43.2467 526.39 40.3 526.39C37.7867 526.39 35.3167 525.74 32.89 524.44C30.55 523.053 28.6 521.06 27.04 518.46C25.5667 515.86 24.83 512.74 24.83 509.1C24.83 505.46 25.5667 502.34 27.04 499.74C28.6 497.14 30.55 495.19 32.89 493.89C35.3167 492.503 37.7867 491.81 40.3 491.81C43.2467 491.81 45.9333 492.503 48.36 493.89C50.8733 495.277 52.8667 497.27 54.34 499.87C55.8133 502.47 56.55 505.547 56.55 509.1ZM89.6431 456.06C89.6431 458.747 90.6398 461 92.6331 462.82C94.6265 464.64 97.0098 465.55 99.7831 465.55C102.556 465.55 104.896 464.64 106.803 462.82C108.796 461 109.793 458.747 109.793 456.06C109.793 453.287 108.796 451.033 106.803 449.3C104.896 447.48 102.556 446.57 99.7831 446.57C97.0098 446.57 94.6265 447.48 92.6331 449.3C90.6398 451.033 89.6431 453.287 89.6431 456.06ZM91.4631 479.2V539H107.843V479.2H91.4631ZM146.126 479.2H129.616V539H146.126V479.2ZM163.676 496.75L171.346 482.45C170.133 480.89 168.529 479.72 166.536 478.94C164.629 478.16 162.593 477.77 160.426 477.77C157.306 477.77 154.273 478.897 151.326 481.15C148.379 483.317 145.996 486.263 144.176 489.99C142.356 493.63 141.446 497.833 141.446 502.6L146.126 507.28C146.126 504.42 146.473 501.993 147.166 500C147.946 497.92 149.073 496.317 150.546 495.19C152.019 494.063 153.796 493.5 155.876 493.5C157.609 493.5 159.039 493.803 160.166 494.41C161.379 494.93 162.549 495.71 163.676 496.75ZM229.28 437.6V539H246.18V437.6H229.28ZM180.14 509.1C180.14 515.687 181.484 521.32 184.17 526C186.857 530.68 190.41 534.233 194.83 536.66C199.25 539.087 203.93 540.3 208.87 540.3C213.897 540.3 218.317 539.043 222.13 536.53C226.03 534.017 229.064 530.42 231.23 525.74C233.484 521.06 234.61 515.513 234.61 509.1C234.61 502.6 233.484 497.053 231.23 492.46C229.064 487.78 226.03 484.183 222.13 481.67C218.317 479.157 213.897 477.9 208.87 477.9C203.93 477.9 199.25 479.113 194.83 481.54C190.41 483.967 186.857 487.52 184.17 492.2C181.484 496.793 180.14 502.427 180.14 509.1ZM197.56 509.1C197.56 505.547 198.297 502.47 199.77 499.87C201.244 497.27 203.237 495.277 205.75 493.89C208.264 492.503 210.95 491.81 213.81 491.81C216.324 491.81 218.75 492.503 221.09 493.89C223.517 495.19 225.467 497.14 226.94 499.74C228.5 502.34 229.28 505.46 229.28 509.1C229.28 512.74 228.5 515.86 226.94 518.46C225.467 521.06 223.517 523.053 221.09 524.44C218.75 525.74 216.324 526.39 213.81 526.39C210.95 526.39 208.264 525.697 205.75 524.31C203.237 522.923 201.244 520.93 199.77 518.33C198.297 515.73 197.56 512.653 197.56 509.1ZM261.204 479.2V493.37H298.644V479.2H261.204ZM296.824 454.5L303.974 441.89C303.194 441.023 302.11 440.113 300.724 439.16C299.424 438.207 297.82 437.427 295.914 436.82C294.007 436.127 291.71 435.78 289.024 435.78C284.517 435.78 280.704 436.647 277.584 438.38C274.464 440.027 272.124 442.41 270.564 445.53C269.004 448.65 268.224 452.507 268.224 457.1V539H284.474V460.87C284.474 458.617 284.734 456.753 285.254 455.28C285.774 453.807 286.467 452.767 287.334 452.16C288.287 451.467 289.414 451.12 290.714 451.12C291.754 451.12 292.794 451.38 293.834 451.9C294.96 452.333 295.957 453.2 296.824 454.5ZM329.996 515.6V479.2H312.576V517.42C312.576 524.527 314.309 530.117 317.776 534.19C321.329 538.263 326.659 540.3 333.766 540.3C338.013 540.3 341.609 539.433 344.556 537.7C347.503 535.88 349.929 533.28 351.836 529.9V539H368.606V479.2H351.836V515.6C351.836 518.113 351.316 520.28 350.276 522.1C349.323 523.92 347.936 525.35 346.116 526.39C344.383 527.343 342.303 527.82 339.876 527.82C336.409 527.82 333.896 526.78 332.336 524.7C330.776 522.533 329.996 519.5 329.996 515.6ZM389.093 437.6V539H405.993V437.6H389.093Z" fill="#91A3A6"/>
<defs>
<filter id="filter0_d_562_67" x="-4" y="0" width="412" height="412" filterUnits="userSpaceOnUse" color-interpolation-filters="sRGB">
<feFlood flood-opacity="0" result="BackgroundImageFix"/>
<feColorMatrix in="SourceAlpha" type="matrix" values="0 0 0 0 0 0 0 0 0 0 0 0 0 0 0 0 0 0 127 0" result="hardAlpha"/>
<feOffset dy="4"/>
<feGaussianBlur stdDeviation="2"/>
<feComposite in2="hardAlpha" operator="out"/>
<feColorMatrix type="matrix" values="0 0 0 0 0 0 0 0 0 0 0 0 0 0 0 0 0 0 0.25 0"/>
<feBlend mode="normal" in2="BackgroundImageFix" result="effect1_dropShadow_562_67"/>
<feBlend mode="normal" in="SourceGraphic" in2="effect1_dropShadow_562_67" result="shape"/>
</filter>
<filter id="filter1_d_562_67" x="36" y="62" width="332" height="265" filterUnits="userSpaceOnUse" color-interpolation-filters="sRGB">
<feFlood flood-opacity="0" result="BackgroundImageFix"/>
<feColorMatrix in="SourceAlpha" type="matrix" values="0 0 0 0 0 0 0 0 0 0 0 0 0 0 0 0 0 0 127 0" result="hardAlpha"/>
<feOffset dy="4"/>
<feGaussianBlur stdDeviation="2"/>
<feComposite in2="hardAlpha" operator="out"/>
<feColorMatrix type="matrix" values="0 0 0 0 0 0 0 0 0 0 0 0 0 0 0 0 0 0 0.25 0"/>
<feBlend mode="normal" in2="BackgroundImageFix" result="effect1_dropShadow_562_67"/>
<feBlend mode="normal" in="SourceGraphic" in2="effect1_dropShadow_562_67" result="shape"/>
</filter>
</defs>
</svg>
