<svg width="404" height="527" viewBox="0 0 404 527" fill="none" xmlns="http://www.w3.org/2000/svg">
<g filter="url(#filter0_d_562_67)">
<path d="M368.613 14.7446H35.3869C23.9864 14.7446 14.7445 23.9865 14.7445 35.387V368.613C14.7445 380.014 23.9864 389.256 35.3869 389.256H368.613C380.014 389.256 389.255 380.014 389.255 368.613V35.387C389.255 23.9865 380.014 14.7446 368.613 14.7446Z" fill="#91A3A6" stroke="#E2D7C9" stroke-width="10"/>
<g filter="url(#filter1_d_562_67)">
<path d="M362.53 308.786L364 307.672L362.745 306.318L268.993 205.111L314.361 182.208L315.988 181.387L315.03 179.837C312.155 175.173 308.265 171.096 303.598 167.832C298.932 164.568 293.575 162.179 287.839 160.793C282.102 159.406 276.091 159.048 270.147 159.735C264.203 160.421 258.434 162.141 253.17 164.798C248.331 167.241 244 170.436 240.388 174.231L139.308 65.1131L138.277 64L137.068 64.9168C127.235 72.37 120.526 82.9619 117.284 96.0051C114.046 109.029 114.33 124.227 118.031 140.703C121.732 157.183 128.791 174.671 138.777 192.175C144.858 202.834 151.958 213.381 159.911 223.595L149.817 229.605L149.804 229.613L41.5679 295.397L40 296.35L41.0936 297.823C45.0731 303.181 51.9527 306.416 60.9651 307.629C69.9928 308.845 81.199 308.043 93.9106 305.345C106.636 302.645 120.693 298.081 135.283 291.925C149.875 285.769 164.733 278.133 179.013 269.454C183.99 266.429 188.864 263.297 193.603 260.081C203.534 269.196 214.004 277.578 224.785 285.027C242.077 296.975 259.849 306.305 277.095 312.47C294.336 318.631 310.756 321.524 325.407 320.922C340.066 320.323 352.709 316.233 362.53 308.786Z" fill="#F7EAD9"/>
</g>
</g>
<path d="M29.83 418.6H12.93V520H29.83V418.6ZM78.97 490.1C78.97 483.427 77.6267 477.793 74.94 473.2C72.2533 468.52 68.7 464.967 64.28 462.54C59.9467 460.113 55.2667 458.9 50.24 458.9C45.3 458.9 40.88 460.157 36.98 462.67C33.1667 465.183 30.1333 468.78 27.88 473.46C25.6267 478.053 24.5 483.6 24.5 490.1C24.5 496.513 25.6267 502.06 27.88 506.74C30.1333 511.42 33.1667 515.017 36.98 517.53C40.88 520.043 45.3 521.3 50.24 521.3C55.2667 521.3 59.9467 520.087 64.28 517.66C68.7 515.233 72.2533 511.68 74.94 507C77.6267 502.32 78.97 496.687 78.97 490.1ZM61.55 490.1C61.55 493.653 60.8133 496.73 59.34 499.33C57.8667 501.93 55.8733 503.923 53.36 505.31C50.9333 506.697 48.2467 507.39 45.3 507.39C42.7867 507.39 40.3167 506.74 37.89 505.44C35.55 504.053 33.6 502.06 32.04 499.46C30.5667 496.86 29.83 493.74 29.83 490.1C29.83 486.46 30.5667 483.34 32.04 480.74C33.6 478.14 35.55 476.19 37.89 474.89C40.3167 473.503 42.7867 472.81 45.3 472.81C48.2467 472.81 50.9333 473.503 53.36 474.89C55.8733 476.277 57.8667 478.27 59.34 480.87C60.8133 483.47 61.55 486.547 61.55 490.1ZM90.7431 437.06C90.7431 439.747 91.7398 442 93.7331 443.82C95.7265 445.64 98.1098 446.55 100.883 446.55C103.656 446.55 105.996 445.64 107.903 443.82C109.896 442 110.893 439.747 110.893 437.06C110.893 434.287 109.896 432.033 107.903 430.3C105.996 428.48 103.656 427.57 100.883 427.57C98.1098 427.57 95.7265 428.48 93.7331 430.3C91.7398 432.033 90.7431 434.287 90.7431 437.06ZM92.5631 460.2V520H108.943V460.2H92.5631ZM143.326 460.2H126.816V520H143.326V460.2ZM160.876 477.75L168.546 463.45C167.333 461.89 165.729 460.72 163.736 459.94C161.829 459.16 159.793 458.77 157.626 458.77C154.506 458.77 151.473 459.897 148.526 462.15C145.579 464.317 143.196 467.263 141.376 470.99C139.556 474.63 138.646 478.833 138.646 483.6L143.326 488.28C143.326 485.42 143.673 482.993 144.366 481C145.146 478.92 146.273 477.317 147.746 476.19C149.219 475.063 150.996 474.5 153.076 474.5C154.809 474.5 156.239 474.803 157.366 475.41C158.579 475.93 159.749 476.71 160.876 477.75ZM222.58 418.6V520H239.48V418.6H222.58ZM173.44 490.1C173.44 496.687 174.784 502.32 177.47 507C180.157 511.68 183.71 515.233 188.13 517.66C192.55 520.087 197.23 521.3 202.17 521.3C207.197 521.3 211.617 520.043 215.43 517.53C219.33 515.017 222.364 511.42 224.53 506.74C226.784 502.06 227.91 496.513 227.91 490.1C227.91 483.6 226.784 478.053 224.53 473.46C222.364 468.78 219.33 465.183 215.43 462.67C211.617 460.157 207.197 458.9 202.17 458.9C197.23 458.9 192.55 460.113 188.13 462.54C183.71 464.967 180.157 468.52 177.47 473.2C174.784 477.793 173.44 483.427 173.44 490.1ZM190.86 490.1C190.86 486.547 191.597 483.47 193.07 480.87C194.544 478.27 196.537 476.277 199.05 474.89C201.564 473.503 204.25 472.81 207.11 472.81C209.624 472.81 212.05 473.503 214.39 474.89C216.817 476.19 218.767 478.14 220.24 480.74C221.8 483.34 222.58 486.46 222.58 490.1C222.58 493.74 221.8 496.86 220.24 499.46C218.767 502.06 216.817 504.053 214.39 505.44C212.05 506.74 209.624 507.39 207.11 507.39C204.25 507.39 201.564 506.697 199.05 505.31C196.537 503.923 194.544 501.93 193.07 499.33C191.597 496.73 190.86 493.653 190.86 490.1ZM250.604 460.2V474.37H288.044V460.2H250.604ZM286.224 435.5L293.374 422.89C292.594 422.023 291.51 421.113 290.124 420.16C288.824 419.207 287.22 418.427 285.314 417.82C283.407 417.127 281.11 416.78 278.424 416.78C273.917 416.78 270.104 417.647 266.984 419.38C263.864 421.027 261.524 423.41 259.964 426.53C258.404 429.65 257.624 433.507 257.624 438.1V520H273.874V441.87C273.874 439.617 274.134 437.753 274.654 436.28C275.174 434.807 275.867 433.767 276.734 433.16C277.687 432.467 278.814 432.12 280.114 432.12C281.154 432.12 282.194 432.38 283.234 432.9C284.36 433.333 285.357 434.2 286.224 435.5ZM315.496 496.6V460.2H298.076V498.42C298.076 505.527 299.809 511.117 303.276 515.19C306.829 519.263 312.159 521.3 319.266 521.3C323.513 521.3 327.109 520.433 330.056 518.7C333.003 516.88 335.429 514.28 337.336 510.9V520H354.106V460.2H337.336V496.6C337.336 499.113 336.816 501.28 335.776 503.1C334.823 504.92 333.436 506.35 331.616 507.39C329.883 508.343 327.803 508.82 325.376 508.82C321.909 508.82 319.396 507.78 317.836 505.7C316.276 503.533 315.496 500.5 315.496 496.6ZM370.693 418.6V520H387.593V418.6H370.693Z" fill="#2E2E2E"/>
<defs>
<filter id="filter0_d_562_67" x="-4" y="0" width="412" height="412" filterUnits="userSpaceOnUse" color-interpolation-filters="sRGB">
<feFlood flood-opacity="0" result="BackgroundImageFix"/>
<feColorMatrix in="SourceAlpha" type="matrix" values="0 0 0 0 0 0 0 0 0 0 0 0 0 0 0 0 0 0 127 0" result="hardAlpha"/>
<feOffset dy="4"/>
<feGaussianBlur stdDeviation="2"/>
<feComposite in2="hardAlpha" operator="out"/>
<feColorMatrix type="matrix" values="0 0 0 0 0 0 0 0 0 0 0 0 0 0 0 0 0 0 0.25 0"/>
<feBlend mode="normal" in2="BackgroundImageFix" result="effect1_dropShadow_562_67"/>
<feBlend mode="normal" in="SourceGraphic" in2="effect1_dropShadow_562_67" result="shape"/>
</filter>
<filter id="filter1_d_562_67" x="36" y="64" width="332" height="265" filterUnits="userSpaceOnUse" color-interpolation-filters="sRGB">
<feFlood flood-opacity="0" result="BackgroundImageFix"/>
<feColorMatrix in="SourceAlpha" type="matrix" values="0 0 0 0 0 0 0 0 0 0 0 0 0 0 0 0 0 0 127 0" result="hardAlpha"/>
<feOffset dy="4"/>
<feGaussianBlur stdDeviation="2"/>
<feComposite in2="hardAlpha" operator="out"/>
<feColorMatrix type="matrix" values="0 0 0 0 0 0 0 0 0 0 0 0 0 0 0 0 0 0 0.25 0"/>
<feBlend mode="normal" in2="BackgroundImageFix" result="effect1_dropShadow_562_67"/>
<feBlend mode="normal" in="SourceGraphic" in2="effect1_dropShadow_562_67" result="shape"/>
</filter>
</defs>
</svg>
