<svg width="137" height="137" viewBox="0 0 137 137" fill="none" xmlns="http://www.w3.org/2000/svg">
<rect x="5" y="5" width="127" height="127" rx="7" fill="#91A3A6" stroke="#E2D7C9" stroke-width="10"/>
<path d="M116.623 99.5146L117.062 99.1813L116.687 98.7766L88.6802 68.5173L102.233 61.6697L102.719 61.4243L102.433 60.961C101.574 59.5665 100.412 58.3476 99.0179 57.3717C97.6238 56.3958 96.0236 55.6815 94.3099 55.267C92.5962 54.8525 90.8005 54.7453 89.0248 54.9507C87.249 55.156 85.5258 55.67 83.9532 56.4646C82.5076 57.195 81.2137 58.1501 80.1347 59.2847L49.9385 26.6604L49.6305 26.3276L49.2693 26.6017C46.3321 28.8301 44.3277 31.9969 43.3591 35.8966C42.392 39.7905 42.4768 44.3346 43.5823 49.2605C44.688 54.1878 46.7967 59.4164 49.78 64.6498C51.5967 67.8367 53.7177 70.9899 56.0935 74.0437L53.0781 75.8407L53.0742 75.8431L20.7402 95.5115L20.2718 95.7964L20.5985 96.2367C21.7873 97.8386 23.8425 98.8058 26.5348 99.1686C29.2317 99.532 32.5794 99.2924 36.3768 98.4858C40.1782 97.6784 44.3777 96.3138 48.7361 94.4734C53.0952 92.6328 57.5339 90.3498 61.7998 87.7549C63.2866 86.8504 64.7428 85.914 66.1585 84.9525C69.1252 87.6777 72.2529 90.1837 75.4737 92.4111C80.6392 95.9833 85.9484 98.7727 91.1004 100.616C96.251 102.458 101.156 103.323 105.533 103.143C109.912 102.964 113.689 101.741 116.623 99.5146Z" fill="#5F5F5F"/>
<path d="M116.623 99.5146L117.062 99.1813L116.687 98.7766L88.6802 68.5173L102.233 61.6697L102.719 61.4243L102.433 60.961C101.574 59.5665 100.412 58.3476 99.0179 57.3717C97.6238 56.3958 96.0236 55.6815 94.3099 55.267C92.5962 54.8525 90.8005 54.7453 89.0248 54.9507C87.249 55.156 85.5258 55.67 83.9532 56.4646C82.5076 57.195 81.2137 58.1501 80.1347 59.2847L49.9385 26.6604L49.6305 26.3276L49.2693 26.6017C46.3321 28.8301 44.3277 31.9969 43.3591 35.8966C42.392 39.7905 42.4768 44.3346 43.5823 49.2605C44.688 54.1878 46.7967 59.4164 49.78 64.6498C51.5967 67.8367 53.7177 70.9899 56.0935 74.0437L53.0781 75.8407L53.0742 75.8431L20.7402 95.5115L20.2718 95.7964L20.5985 96.2367C21.7873 97.8386 23.8425 98.8058 26.5348 99.1686C29.2317 99.532 32.5794 99.2924 36.3768 98.4858C40.1782 97.6784 44.3777 96.3138 48.7361 94.4734C53.0952 92.6328 57.5339 90.3498 61.7998 87.7549C63.2866 86.8504 64.7428 85.914 66.1585 84.9525C69.1252 87.6777 72.2529 90.1837 75.4737 92.4111C80.6392 95.9833 85.9484 98.7727 91.1004 100.616C96.251 102.458 101.156 103.323 105.533 103.143C109.912 102.964 113.689 101.741 116.623 99.5146Z" fill="#5F5F5F"/>
<path d="M116.623 99.5146L117.062 99.1813L116.687 98.7766L88.6802 68.5173L102.233 61.6697L102.719 61.4243L102.433 60.961C101.574 59.5665 100.412 58.3476 99.0179 57.3717C97.6238 56.3958 96.0236 55.6815 94.3099 55.267C92.5962 54.8525 90.8005 54.7453 89.0248 54.9507C87.249 55.156 85.5258 55.67 83.9532 56.4646C82.5076 57.195 81.2137 58.1501 80.1347 59.2847L49.9385 26.6604L49.6305 26.3276L49.2693 26.6017C46.3321 28.8301 44.3277 31.9969 43.3591 35.8966C42.392 39.7905 42.4768 44.3346 43.5823 49.2605C44.688 54.1878 46.7967 59.4164 49.78 64.6498C51.5967 67.8367 53.7177 70.9899 56.0935 74.0437L53.0781 75.8407L53.0742 75.8431L20.7402 95.5115L20.2718 95.7964L20.5985 96.2367C21.7873 97.8386 23.8425 98.8058 26.5348 99.1686C29.2317 99.532 32.5794 99.2924 36.3768 98.4858C40.1782 97.6784 44.3777 96.3138 48.7361 94.4734C53.0952 92.6328 57.5339 90.3498 61.7998 87.7549C63.2866 86.8504 64.7428 85.914 66.1585 84.9525C69.1252 87.6777 72.2529 90.1837 75.4737 92.4111C80.6392 95.9833 85.9484 98.7727 91.1004 100.616C96.251 102.458 101.156 103.323 105.533 103.143C109.912 102.964 113.689 101.741 116.623 99.5146Z" fill="#F7EAD9"/>
<path d="M116.623 99.5146L117.062 99.1813L116.687 98.7766L88.6802 68.5173L102.233 61.6697L102.719 61.4243L102.433 60.961C101.574 59.5665 100.412 58.3476 99.0179 57.3717C97.6238 56.3958 96.0236 55.6815 94.3099 55.267C92.5962 54.8525 90.8005 54.7453 89.0248 54.9507C87.249 55.156 85.5258 55.67 83.9532 56.4646C82.5076 57.195 81.2137 58.1501 80.1347 59.2847L49.9385 26.6604L49.6305 26.3276L49.2693 26.6017C46.3321 28.8301 44.3277 31.9969 43.3591 35.8966C42.392 39.7905 42.4768 44.3346 43.5823 49.2605C44.688 54.1878 46.7967 59.4164 49.78 64.6498C51.5967 67.8367 53.7177 70.9899 56.0935 74.0437L53.0781 75.8407L53.0742 75.8431L20.7402 95.5115L20.2718 95.7964L20.5985 96.2367C21.7873 97.8386 23.8425 98.8058 26.5348 99.1686C29.2317 99.532 32.5794 99.2924 36.3768 98.4858C40.1782 97.6784 44.3777 96.3138 48.7361 94.4734C53.0952 92.6328 57.5339 90.3498 61.7998 87.7549C63.2866 86.8504 64.7428 85.914 66.1585 84.9525C69.1252 87.6777 72.2529 90.1837 75.4737 92.4111C80.6392 95.9833 85.9484 98.7727 91.1004 100.616C96.251 102.458 101.156 103.323 105.533 103.143C109.912 102.964 113.689 101.741 116.623 99.5146Z" stroke="#91A3A6"/>
</svg>
