<svg width="1982" height="1190" viewBox="0 0 1982 1190" fill="none" xmlns="http://www.w3.org/2000/svg">
<path d="M951.92 447.607C951.92 394.029 951.92 457.369 951.92 390.739C809.075 352.853 640.533 171 438.519 171C236.505 171 148.308 339.234 0.000354843 414.345C-0.000495588 537.508 0.000453724 394.592 0.000423221 448.171L413.321 453.664L951.92 447.607Z" fill="#BAA89B"/>
<path d="M1624.91 631.687C1624.91 560.12 1520.02 561.995 1723.48 456.187C1571.27 405.582 1418.54 272.687 1219.36 226.687C1113.61 261.687 832.807 390.274 680.604 440.879C528.4 491.485 442.894 560.12 442.894 631.687L1254.49 631.687H1624.91Z" fill="#BBB5B5"/>
<path d="M1982 580C1982 507.124 1982 447.704 1982 388.597C1896.1 337.066 1858.32 255 1736.84 255C1615.36 255 1569.4 286.435 1480.22 388.597C1343.84 552.669 1247 448.714 1247 521.59L1705.04 521.59L1982 580Z" fill="#BEB0A6"/>
<path d="M0 443.224C0 443.224 242.614 353.522 464.875 376.882C687.137 400.242 1043.69 495.551 1221.97 482.002C1400.25 468.453 1561.52 403.461 1710.48 409.068C1859.43 414.674 1982 443.224 1982 443.224V824H0V443.224Z" fill="#947B68"/>
<path d="M1981.63 587.192C1995.66 835.855 1602.7 822.167 1055.53 822.167C508.365 822.167 -10.8471 857.528 0.172323 587.192C0.172323 534.994 191.798 473.687 738.963 473.687C1286.13 473.687 1981.63 534.994 1981.63 587.192Z" fill="#80C04D" fill-opacity="0.13"/>
<rect x="243.125" y="523.361" width="29.5288" height="95.8103" fill="#896A52"/>
<path d="M257.067 304.688L320.194 389.768H193.94L257.067 304.688Z" fill="#587641"/>
<path d="M258.261 336.779L336.911 458.243H179.611L258.261 336.779Z" fill="#587641"/>
<path d="M257.065 387.528L347.789 534.181H166.341L257.065 387.528Z" fill="#587641"/>
<rect x="439.515" y="662.358" width="29.5288" height="95.8103" fill="#8C6547"/>
<path d="M453.465 443.687L516.593 528.768H390.338L453.465 443.687Z" fill="#587A3D"/>
<path d="M454.658 475.779L533.308 597.243H376.007L454.658 475.779Z" fill="#587A3D"/>
<path d="M453.463 526.528L544.187 673.181H362.739L453.463 526.528Z" fill="#587A3D"/>
<rect x="1408.48" y="515.361" width="29.5288" height="95.8103" fill="#896A52"/>
<path d="M1422.42 296.688L1485.54 381.768H1359.29L1422.42 296.688Z" fill="#587641"/>
<path d="M1423.61 328.779L1502.26 450.243H1344.96L1423.61 328.779Z" fill="#587641"/>
<path d="M1422.42 379.528L1513.14 526.181H1331.69L1422.42 379.528Z" fill="#587641"/>
<rect x="1604.87" y="654.358" width="29.5288" height="95.8103" fill="#8C6547"/>
<path d="M1618.82 435.687L1681.94 520.768H1555.69L1618.82 435.687Z" fill="#587A3D"/>
<path d="M1620.01 467.779L1698.66 589.243H1541.36L1620.01 467.779Z" fill="#587A3D"/>
<path d="M1618.81 518.528L1709.54 665.181H1528.09L1618.81 518.528Z" fill="#587A3D"/>
<rect x="635.911" y="523.358" width="29.5288" height="95.8103" fill="#8F6645"/>
<path d="M649.861 304.687L712.988 389.768H586.734L649.861 304.687Z" fill="#587A3D"/>
<path d="M651.053 336.779L729.703 458.243H572.403L651.053 336.779Z" fill="#587A3D"/>
<path d="M649.859 387.528L740.583 534.181H559.135L649.859 387.528Z" fill="#587A3D"/>
<rect x="1801.26" y="527.358" width="29.5288" height="95.8103" fill="#8F6645"/>
<path d="M1815.21 308.687L1878.34 393.768H1752.08L1815.21 308.687Z" fill="#587A3D"/>
<path d="M1816.4 340.779L1895.05 462.243H1737.75L1816.4 340.779Z" fill="#587A3D"/>
<path d="M1815.21 391.528L1905.93 538.181H1724.49L1815.21 391.528Z" fill="#587A3D"/>
<path d="M1111.24 824C1111.24 728.682 855.944 698.786 936.617 617.428C976.202 577.506 1075.17 647.5 1092.7 477.5" stroke="#DDDAD7" stroke-opacity="0.42" stroke-width="80"/>
<ellipse cx="1305" cy="67.0446" rx="55.4814" ry="55.3573" fill="#D78665"/>
<rect y="823.687" width="1982" height="366" fill="#8F745F"/>
<rect y="1159" width="1982" height="31" fill="#625348"/>
</svg>
