<svg width="1979" height="1178" viewBox="0 0 1979 1178" fill="none" xmlns="http://www.w3.org/2000/svg">
<path d="M0 431.224C0 431.224 242.247 341.522 464.172 364.882C686.097 388.242 1042.11 483.551 1220.12 470.002C1398.13 456.453 1559.16 391.461 1707.89 397.068C1856.62 402.674 1979 431.224 1979 431.224V812H0V431.224Z" fill="#578D2D" fill-opacity="0.65"/>
<rect y="812" width="1979" height="366" fill="#77AAB8"/>
<path d="M1039 773.826C1240.33 773.826 1422.8 759.234 1555.09 735.572C1621.18 723.752 1675.12 709.606 1712.71 693.71C1731.48 685.775 1746.6 677.228 1757.15 668.008C1767.65 658.823 1774.5 648.163 1774.5 636.12C1774.5 623.364 1766.45 614.055 1754.82 607.453C1743.32 600.921 1727.04 596.204 1707.22 592.613C1667.44 585.406 1610.58 582.272 1541.96 580.15C1512.96 579.254 1481.8 578.537 1448.82 577.779C1325.26 574.936 1176.24 571.508 1020.25 555.863C847.803 538.569 670.173 538.779 535.498 552.357C468.219 559.14 411.295 569.293 371.004 582.426C350.905 588.978 334.468 596.42 322.906 604.877C311.445 613.261 303.5 623.636 303.5 636.12C303.5 648.163 310.346 658.823 320.855 668.008C331.404 677.228 346.524 685.775 365.289 693.71C402.881 709.606 456.819 723.752 522.906 735.572C655.203 759.234 837.666 773.826 1039 773.826Z" fill="#B6DBF2" stroke="#7E8C95" stroke-width="15"/>
<ellipse cx="1303.37" cy="55.3573" rx="55.3695" ry="55.3573" fill="#D78665"/>
<rect x="1465.42" y="355.933" width="16.949" height="268.465" rx="8.47452" fill="#BDAB90"/>
<rect x="1471.77" y="251" width="4.23726" height="39.5202" rx="2.11863" fill="#656565"/>
<rect x="1458" y="279.618" width="32.8388" height="98.1191" rx="16.4194" fill="#9E7969"/>
<rect x="1518.38" y="443.25" width="16.949" height="223.394" rx="8.47452" fill="#BDAB90"/>
<rect x="1524.74" y="355.933" width="4.23726" height="32.8854" rx="2.11863" fill="#656565"/>
<rect x="1510.97" y="379.747" width="32.8388" height="81.6465" rx="16.4194" fill="#9E7969"/>
<rect x="1572.06" y="376.374" width="18.5893" height="268.465" rx="9.29464" fill="#BDAB90"/>
<rect x="1579.03" y="271.441" width="4.64732" height="39.5202" rx="2.32366" fill="#656565"/>
<rect x="1563.93" y="300.06" width="36.0167" height="98.1191" rx="18.0084" fill="#9E7969"/>
<ellipse cx="802.793" cy="638.529" rx="54.4179" ry="16.2214" transform="rotate(-1.38149 802.793 638.529)" fill="white"/>
<path d="M715.952 672.172C716.044 677.588 712.368 682.924 705.469 687.388C698.57 691.851 688.817 695.203 677.657 696.947C666.498 698.69 654.528 698.732 643.526 697.066C632.523 695.399 623.075 692.114 616.584 687.697C610.093 683.28 606.906 677.968 607.497 672.549C608.087 667.13 612.423 661.894 619.861 657.618C627.299 653.342 637.442 650.255 648.783 648.814C660.124 647.374 672.058 647.657 682.813 649.622L661.69 673.097L715.952 672.172Z" fill="#89AC6E"/>
<path d="M433.609 589.034L516.321 572.151L574.748 564L607 631.086L559.737 649L433.609 642.539L399 601.842L433.609 589.034Z" fill="#8B796A" fill-opacity="0.55"/>
<path d="M557.502 506.122V581.297C556.03 557.991 570.669 511.867 641.001 513.823" stroke="#6F9651" stroke-width="15"/>
<path d="M557.5 506V581.175C558.972 557.869 544.333 511.745 474.001 513.701" stroke="#6F9651" stroke-width="15"/>
<path d="M461.502 532.16V630.298C460.03 599.872 474.669 539.66 545.001 542.213" stroke="#6F9651" stroke-width="15"/>
<path d="M461.5 532V630.138C462.972 599.712 448.333 539.5 378.001 542.053" stroke="#6F9651" stroke-width="15"/>
<rect x="484.746" y="290.31" width="38.7307" height="122.463" fill="#8F745F"/>
<ellipse cx="504.107" cy="187.25" rx="70.3765" ry="64.2502" fill="#89AC6E"/>
<ellipse cx="448.376" cy="260.555" rx="70.3765" ry="64.2502" fill="#89AC6E"/>
<ellipse cx="563.625" cy="260.555" rx="70.3765" ry="64.2502" fill="#89AC6E"/>
<rect x="199.746" y="333.31" width="38.7307" height="122.463" fill="#8F745F"/>
<ellipse cx="219.107" cy="230.25" rx="70.3765" ry="64.2502" fill="#89AC6E"/>
<ellipse cx="163.376" cy="303.555" rx="70.3765" ry="64.2502" fill="#89AC6E"/>
<ellipse cx="278.625" cy="303.555" rx="70.3765" ry="64.2502" fill="#89AC6E"/>
<path d="M1072 567.5L1164.5 574L1091.5 767.5L988.5 766.5L1072 567.5Z" fill="#8F745F"/>
<path d="M1084.07 578.69L1140.72 583.345L1136.82 595.489L1080.21 590.038L1084.07 578.69Z" fill="#BDAB90" fill-opacity="0.6"/>
<path d="M1069.92 612.239L1126.57 616.894L1122.67 629.038L1066.07 623.587L1069.92 612.239Z" fill="#BDAB90" fill-opacity="0.6"/>
<path d="M1056.92 649.239L1113.57 653.894L1109.67 666.038L1053.07 660.587L1056.92 649.239Z" fill="#BDAB90" fill-opacity="0.6"/>
<path d="M1042.92 686.239L1099.57 690.894L1095.67 703.038L1039.07 697.587L1042.92 686.239Z" fill="#BDAB90" fill-opacity="0.6"/>
<path d="M1023.92 727.239L1080.57 731.894L1076.67 744.038L1020.07 738.587L1023.92 727.239Z" fill="#BDAB90" fill-opacity="0.6"/>
<rect y="1147" width="1979" height="31" fill="#5B8A8C"/>
</svg>
