<svg width="1979" height="1121" viewBox="0 0 1979 1121" fill="none" xmlns="http://www.w3.org/2000/svg">
<ellipse cx="1050.11" cy="533.19" rx="498.325" ry="110.237" fill="#D9D9D9"/>
<rect x="901.207" y="165.364" width="80.4559" height="220.993" fill="#E0D5C5"/>
<rect x="1153.21" y="186.252" width="80.4559" height="220.993" fill="#E0D5C5"/>
<rect x="1265.86" y="267.379" width="80.4559" height="220.993" fill="#E0D5C5"/>
<rect x="803.812" y="222.941" width="79.609" height="186.278" fill="#E0D5C5"/>
<rect x="999.445" y="98.4736" width="127.036" height="337.841" fill="#E0D5C5"/>
<rect x="1021.47" y="72.6741" width="82.0996" height="41.0408" fill="#E0D5C5"/>
<rect x="1034.84" y="55.4941" width="55.3695" height="27.6787" fill="#E0D5C5"/>
<path d="M757.989 278.862C848.589 281.024 1088.3 393.365 1088.3 393.365H427.682C427.682 393.365 667.389 276.7 757.989 278.862Z" fill="#E0D5C5"/>
<path d="M1323.14 308.45C1413.74 310.611 1653.45 422.952 1653.45 422.952H992.832C992.832 422.952 1232.54 306.288 1323.14 308.45Z" fill="#BFBFBF"/>
<path d="M0 356.478C0 356.478 242.247 266.839 464.172 290.183C686.097 313.526 1042.11 408.767 1220.12 395.228C1398.13 381.689 1559.16 316.743 1707.89 322.346C1856.62 327.948 1979 356.478 1979 356.478V736.984H0V356.478Z" fill="#89AC6E"/>
<ellipse cx="1239.13" cy="58.3573" rx="55.3695" ry="55.3573" fill="#FF6E33" fill-opacity="0.74"/>
<rect x="1584.75" y="259.322" width="44.0588" height="133.452" fill="#8F745F"/>
<ellipse cx="1606.78" cy="147.015" rx="80.0581" ry="70.015" fill="#89AC6E"/>
<ellipse cx="1543.38" cy="226.897" rx="80.0581" ry="70.015" fill="#89AC6E"/>
<ellipse cx="1674.48" cy="226.897" rx="80.0581" ry="70.015" fill="#89AC6E"/>
<rect x="581.359" y="183.252" width="42.0044" height="167.026" fill="#8F745F"/>
<ellipse cx="602.499" cy="70.3001" rx="76.2588" ry="70.3001" fill="#6F9651"/>
<ellipse cx="542.106" cy="150.509" rx="76.2588" ry="70.3001" fill="#6F9651"/>
<ellipse cx="666.987" cy="150.509" rx="76.2588" ry="70.3001" fill="#6F9651"/>
<ellipse cx="602.499" cy="70.3001" rx="76.2588" ry="70.3001" fill="#6F9651"/>
<rect x="329.665" y="300.063" width="41.968" height="133.995" fill="#8F745F"/>
<ellipse cx="350.651" cy="187.3" rx="76.2588" ry="70.3001" fill="#6F9651"/>
<ellipse cx="290.259" cy="267.509" rx="76.2588" ry="70.3001" fill="#6F9651"/>
<ellipse cx="415.141" cy="267.509" rx="76.2588" ry="70.3001" fill="#6F9651"/>
<ellipse cx="350.651" cy="187.3" rx="76.2588" ry="70.3001" fill="#6F9651"/>
<ellipse cx="1050.11" cy="533.19" rx="498.325" ry="110.237" fill="#D9D9D9"/>
<rect x="901.207" y="165.364" width="80.4559" height="220.993" fill="#E0D5C5"/>
<rect x="1153.21" y="186.252" width="80.4559" height="220.993" fill="#E0D5C5"/>
<rect x="1265.86" y="267.379" width="80.4559" height="220.993" fill="#E0D5C5"/>
<rect x="803.812" y="222.941" width="79.609" height="186.278" fill="#E0D5C5"/>
<rect x="999.445" y="98.4736" width="127.036" height="337.841" fill="#E0D5C5"/>
<rect x="1021.47" y="72.6741" width="82.0996" height="41.0408" fill="#E0D5C5"/>
<rect x="1034.84" y="55.4941" width="55.3695" height="27.6787" fill="#E0D5C5"/>
<path d="M757.989 278.862C848.589 281.024 1088.3 393.365 1088.3 393.365H427.682C427.682 393.365 667.389 276.7 757.989 278.862Z" fill="#E0D5C5"/>
<path d="M1323.14 308.45C1413.74 310.611 1653.45 422.952 1653.45 422.952H992.832C992.832 422.952 1232.54 306.288 1323.14 308.45Z" fill="#BFBFBF"/>
<path d="M0 356.478C0 356.478 242.247 266.839 464.172 290.183C686.097 313.526 1042.11 408.767 1220.12 395.228C1398.13 381.689 1559.16 316.743 1707.89 322.346C1856.62 327.948 1979 356.478 1979 356.478V736.984H0V356.478Z" fill="#89AC6E"/>
<ellipse cx="1239.13" cy="58.3573" rx="55.3695" ry="55.3573" fill="#FF6E33" fill-opacity="0.74"/>
<rect x="1584.75" y="259.322" width="44.0588" height="133.452" fill="#8F745F"/>
<ellipse cx="1606.78" cy="147.015" rx="80.0581" ry="70.015" fill="#89AC6E"/>
<ellipse cx="1543.38" cy="226.897" rx="80.0581" ry="70.015" fill="#89AC6E"/>
<ellipse cx="1674.48" cy="226.897" rx="80.0581" ry="70.015" fill="#89AC6E"/>
<rect x="581.359" y="183.252" width="42.0044" height="167.026" fill="#8F745F"/>
<ellipse cx="602.499" cy="70.3001" rx="76.2588" ry="70.3001" fill="#6F9651"/>
<ellipse cx="542.106" cy="150.509" rx="76.2588" ry="70.3001" fill="#6F9651"/>
<ellipse cx="666.987" cy="150.509" rx="76.2588" ry="70.3001" fill="#6F9651"/>
<ellipse cx="602.499" cy="70.3001" rx="76.2588" ry="70.3001" fill="#6F9651"/>
<rect x="329.665" y="300.063" width="41.968" height="133.995" fill="#8F745F"/>
<ellipse cx="350.651" cy="187.3" rx="76.2588" ry="70.3001" fill="#6F9651"/>
<ellipse cx="290.259" cy="267.509" rx="76.2588" ry="70.3001" fill="#6F9651"/>
<ellipse cx="415.141" cy="267.509" rx="76.2588" ry="70.3001" fill="#6F9651"/>
<ellipse cx="350.651" cy="187.3" rx="76.2588" ry="70.3001" fill="#6F9651"/>
<path d="M1978.64 537.803C1992.63 763.02 1600.46 750.623 1054.4 750.623C508.34 750.623 -9.82519 782.65 1.17198 537.803C1.17198 490.527 192.411 435 738.473 435C1284.53 435 1978.64 490.527 1978.64 537.803Z" fill="#A6BD93" fill-opacity="0.37"/>
<path d="M1092 737C1092 650.795 877.865 637.695 945.047 564.115C978.013 528.011 1023 514 1025.5 428" stroke="#DDDAD7" stroke-opacity="0.65" stroke-width="80"/>
<rect y="737" width="1979" height="384" fill="#89AC6E"/>
<rect y="1090" width="1979" height="31" fill="#6F9651"/>
</svg>
