<svg width="320" height="348" viewBox="0 0 320 348" fill="none" xmlns="http://www.w3.org/2000/svg">
<path d="M155.745 28.9488C78.2689 -14.628 4.29995 27.9932 -23 54.7509V338H359V2C323.53 29.1399 233.221 72.5256 155.745 28.9488Z" fill="#C9D3C9" stroke="#C2BCB5"/>
<path d="M-28 316C22.5485 302.947 117.375 268.559 92.2956 235.431C67.2158 202.304 114.897 182.919 141.872 177.368C179.054 171.216 247.586 153.332 224.256 131.007C195.094 103.1 236.65 76.0942 276.02 79.695C307.515 82.5757 341.718 25.903 340.989 13" stroke="#60999C" stroke-width="40"/>
<path d="M-23 338C26.7407 323.631 137.5 259.5 103 235C67.0976 209.504 125.388 185.148 151.932 179.036C188.52 172.265 255.978 153.736 229.5 133C188 100.5 233.557 80.5 272.5 80.5C317.5 80.5 325.089 26.116 326.5 24" stroke="white" stroke-opacity="0.1" stroke-width="10"/>
<path d="M255.774 148.88C253.665 137.494 254.002 115.312 272.22 117.674" stroke="#618760" stroke-width="3"/>
<path d="M254.032 148.705C256.085 137.383 255.756 115.324 238.023 117.673" stroke="#618760" stroke-width="3"/>
<path d="M254.891 114.125V148.284" stroke="#618760" stroke-width="3"/>
<path d="M194.361 90.4276C191.998 77.6672 192.376 52.8082 212.793 55.4547" stroke="#618760" stroke-width="3"/>
<path d="M192.41 90.2319C194.71 77.5425 194.342 52.8218 174.468 55.4537" stroke="#618760" stroke-width="3"/>
<path d="M193.372 51.4783V89.7593" stroke="#618760" stroke-width="3"/>
<path d="M284.985 47.1427C282.858 37.5574 283.198 18.8839 301.578 20.872" stroke="#618760" stroke-width="3"/>
<path d="M283.228 46.9957C285.299 37.4638 284.968 18.8941 267.077 20.8711" stroke="#618760" stroke-width="3"/>
<path d="M284.095 17.8849V46.6407" stroke="#618760" stroke-width="3"/>
<rect x="-19" y="162.384" width="198" height="13" rx="6" fill="#9C8468"/>
<path d="M126.467 47.4589C130.738 46.0229 133.754 51.6484 130.194 54.4106L121.85 60.8845C119.894 62.4023 117.043 61.7963 115.873 59.6141L114.206 56.5057C113.037 54.3235 114.11 51.6133 116.457 50.8243L126.467 47.4589Z" fill="black"/>
<path d="M117.472 63.9322C115.264 64.5202 114.028 61.4771 116.021 60.3599L131.326 51.7796C131.676 51.5832 132.12 51.7089 132.315 52.0601C132.49 52.3755 132.407 52.7716 132.119 52.9898L118.147 63.602C117.945 63.7549 117.716 63.8671 117.472 63.9322Z" fill="#858585"/>
<ellipse cx="100.161" cy="108.165" rx="22.9076" ry="37.8552" fill="#4C8083"/>
<ellipse cx="98.5905" cy="120.642" rx="21.0661" ry="38.5126" fill="#FF6E33"/>
<ellipse rx="13.0068" ry="19.1336" transform="matrix(0.756118 0.654435 -0.677884 0.735169 98.5847 84.409)" fill="#4C8083"/>
<ellipse cx="98.5906" cy="118.846" rx="11.1189" ry="43.33" fill="#59EBFF"/>
<ellipse rx="14.4084" ry="36.847" transform="matrix(0.993519 -0.113664 0.125046 0.992151 83.5313 112.982)" fill="#4C8083"/>
<ellipse rx="14.4084" ry="36.847" transform="matrix(0.993513 0.113723 -0.102327 0.994751 114.046 113.079)" fill="#4C8083"/>
<ellipse rx="13.1505" ry="21.3546" transform="matrix(0.675748 0.737132 -0.757999 0.652255 100.827 67.8447)" fill="#4C8083"/>
<ellipse rx="19.9669" ry="3.70609" transform="matrix(0.999846 -0.0175334 -0.0138891 0.999904 100.196 84.6751)" fill="#4C8083"/>
<ellipse rx="2.55451" ry="7.96914" transform="matrix(0.946552 0.322552 -0.341242 0.939975 116.08 66.0206)" fill="white"/>
<ellipse rx="5.25074" ry="8.13527" transform="matrix(0.779098 0.626902 -0.65083 0.759223 99.4098 70.3034)" fill="white"/>
<ellipse rx="5.05927" ry="10.6262" transform="matrix(0.779098 0.626902 -0.65083 0.759223 101.552 73.9783)" fill="#4C8083"/>
<ellipse rx="2.86129" ry="7.88185" transform="matrix(0.446511 0.894778 -0.905577 0.424181 110.63 60.8551)" fill="#FF6E33"/>
<ellipse cx="109.739" cy="61.1815" rx="2.65693" ry="2.42273" fill="black"/>
<ellipse cx="109.359" cy="59.8619" rx="1.25032" ry="1.10321" fill="#C4C4C4"/>
<path d="M0 348H170.5H341V339H0V348Z" fill="#CAB193"/>
</svg>
