<svg width="467" height="481" viewBox="0 0 467 481" fill="none" xmlns="http://www.w3.org/2000/svg">
<ellipse cx="386.016" cy="37.5" rx="38.2539" ry="37.5" fill="#FF6E33"/>
<path d="M218.578 119.879C124.267 69.9471 34.2244 118.784 0.992188 149.444V474H466.001V89C422.823 120.098 312.89 169.811 218.578 119.879Z" fill="#8CB1B5" fill-opacity="0.67"/>
<path d="M183.324 196.027C88.9327 147.784 34.0896 212.868 1 235.407V474H466V134C423.008 156.861 340.577 276.399 183.324 196.027Z" fill="#92B48A"/>
<path d="M144.196 202.045C145.18 201.732 145.883 202.987 145.145 203.738L126.058 223.173C125.598 223.642 124.845 223.546 124.528 222.979L118.169 211.636C117.851 211.07 118.137 210.332 118.75 210.137L144.196 202.045Z" fill="#2E2E2E"/>
<path d="M145.479 203.248L126.372 225.372L122.012 220.279L145.479 203.248Z" fill="#504F4F"/>
<ellipse cx="108.973" cy="261.978" rx="23.4766" ry="35.3148" fill="#4C8083"/>
<ellipse cx="107.359" cy="273.618" rx="21.5893" ry="35.9281" fill="#FF6E33"/>
<ellipse rx="12.8313" ry="18.6786" transform="matrix(0.785496 0.618867 -0.711644 0.70254 107.357 239.816)" fill="#4C8083"/>
<ellipse cx="107.36" cy="271.942" rx="11.3951" ry="40.4222" fill="#59EBFF"/>
<ellipse rx="14.7499" ry="34.4298" transform="matrix(0.994621 -0.103581 0.137149 0.99055 91.9278 266.471)" fill="#4C8083"/>
<ellipse rx="14.7499" ry="34.4114" transform="matrix(0.994615 0.103635 -0.112291 0.993675 123.197 266.561)" fill="#4C8083"/>
<ellipse rx="12.8342" ry="21.0721" transform="matrix(0.709596 0.704608 -0.787243 0.616643 109.651 224.363)" fill="#4C8083"/>
<ellipse rx="20.4623" ry="3.45744" transform="matrix(0.999873 -0.0159608 -0.0152577 0.999884 109.005 240.064)" fill="#4C8083"/>
<ellipse rx="2.59451" ry="7.52334" transform="matrix(0.955105 0.296266 -0.37044 0.928856 125.285 222.661)" fill="white"/>
<ellipse rx="5.19677" ry="7.9148" transform="matrix(0.806741 0.590905 -0.685575 0.728002 108.2 226.657)" fill="white"/>
<ellipse rx="5.00727" ry="10.3383" transform="matrix(0.806741 0.590905 -0.685575 0.728002 110.393 230.084)" fill="#4C8083"/>
<ellipse rx="2.72375" ry="7.9521" transform="matrix(0.480708 0.876881 -0.919872 0.392219 119.705 217.844)" fill="#FF6E33"/>
<ellipse cx="118.785" cy="218.147" rx="2.72292" ry="2.26014" fill="black"/>
<ellipse cx="118.395" cy="216.916" rx="1.28137" ry="1.02917" fill="#C4C4C4"/>
<path d="M273.804 248.671L293.55 245L309.64 245L321.926 276.443L307.136 286L267.667 282.553L264.297 270.83L273.804 248.671Z" fill="#8B796A" fill-opacity="0.55"/>
<path d="M419.262 167.253L427.433 166L434.091 166L439.175 176.736L433.055 180L416.723 178.823L415.328 174.82L419.262 167.253Z" fill="#8B796A" fill-opacity="0.55"/>
<path d="M434.552 333.788L411.635 325L399.606 329.807L386.511 355.676L399.606 365L434.552 361.637L444.141 340.455L434.552 333.788Z" fill="#8B796A" fill-opacity="0.55"/>
<path d="M170.912 442.669L154.317 438L145.606 440.554L136.124 454.298L145.606 459.252L170.912 457.465L177.855 446.211L170.912 442.669Z" fill="#8B796A" fill-opacity="0.55"/>
<path d="M39.7519 480C39.2631 445.422 69.6634 373.279 195.174 361.332C320.685 349.384 354.339 304.451 355.968 280.502C356.294 256.419 374.901 203.646 466.004 203" stroke="#55819A" stroke-width="50"/>
<path d="M51.5761 479.916C51.0871 444.481 81.5019 370.551 207.073 358.308C332.644 346.064 366.314 300.017 367.944 275.475C368.27 250.795 370.881 196.162 462.027 195.5" stroke="#BAE4E7" stroke-opacity="0.04" stroke-width="40"/>
<path d="M416.914 291.686L416.552 349.615" stroke="#618760" stroke-width="5"/>
<path d="M416.914 291.686L416.552 349.615" stroke="#618760" stroke-width="5"/>
<path d="M416.714 348.695C416.828 331.169 417.626 293.475 452.248 303.943" stroke="#618760" stroke-width="4"/>
<path d="M416.714 348.695C416.828 331.169 417.626 293.475 452.248 303.943" stroke="#618760" stroke-width="4"/>
<path d="M415.934 348.695C415.821 331.169 415.023 293.475 380.401 303.943" stroke="#618760" stroke-width="4"/>
<path d="M415.934 348.695C415.821 331.169 415.023 293.475 380.401 303.943" stroke="#618760" stroke-width="4"/>
<path d="M295.426 223L295.099 272.262" stroke="#618760" stroke-width="5"/>
<path d="M295.412 271.111C295.515 256.207 296.235 224.153 327.491 233.055" stroke="#618760" stroke-width="4"/>
<path d="M294.701 269.111C294.598 254.207 293.878 222.153 262.622 231.055" stroke="#618760" stroke-width="4"/>
<rect x="0.992188" y="474" width="465.009" height="7" fill="#A2998C"/>
<path d="M0.992188 316H148.046L148.938 316.778C152.181 319.607 151.731 324.775 148.046 327V327H0.992188V316Z" fill="#8F745F"/>
<path d="M410.534 133.682L425.63 172.508L416.844 158.209L403.626 141.043" stroke="#618760" stroke-width="5"/>
<path d="M433.219 130.175L425.938 173.643L421.043 130.338" stroke="#618760" stroke-width="5"/>
<path d="M449.54 141.267L427.365 172.944L441.562 133.683" stroke="#618760" stroke-width="5"/>
<path d="M143.5 409.001L157.948 447.827L149.539 433.528L136.888 416.362" stroke="#618760" stroke-width="5"/>
<path d="M163.942 404.456L156.973 447.924L152.287 404.619" stroke="#618760" stroke-width="5"/>
<path d="M179.89 415.584L158.664 447.262L172.254 408" stroke="#618760" stroke-width="5"/>
</svg>
