<svg width="467" height="408" viewBox="0 0 467 408" fill="none" xmlns="http://www.w3.org/2000/svg">
<path d="M190.995 117.257C80.4935 80.0365 55.9931 104.152 0 139.349V401H467V21C467 105.392 289.873 150.561 190.995 117.257Z" fill="#92B48A"/>
<path d="M143.96 139.042C144.946 138.73 145.652 139.984 144.912 140.733L125.737 160.175C125.277 160.641 124.523 160.545 124.205 159.979L117.817 148.633C117.498 148.067 117.783 147.331 118.397 147.137L143.96 139.042Z" fill="#2E2E2E"/>
<path d="M145.245 140.246L126.057 162.37L121.678 157.277L145.245 140.246Z" fill="#504F4F"/>
<ellipse cx="108.593" cy="198.976" rx="23.5772" ry="35.3148" fill="#4C8083"/>
<ellipse cx="106.973" cy="210.616" rx="21.6818" ry="35.9281" fill="#FF6E33"/>
<ellipse rx="12.8653" ry="18.7192" transform="matrix(0.78678 0.617234 -0.713144 0.701017 106.97 176.814)" fill="#4C8083"/>
<ellipse cx="106.973" cy="208.94" rx="11.4439" ry="40.4222" fill="#59EBFF"/>
<ellipse rx="14.8125" ry="34.4325" transform="matrix(0.994666 -0.103144 0.137725 0.99047 91.4757 203.469)" fill="#4C8083"/>
<ellipse rx="14.8124" ry="34.4133" transform="matrix(0.994661 0.103198 -0.112765 0.993622 122.878 203.559)" fill="#4C8083"/>
<ellipse rx="12.862" ry="21.1281" transform="matrix(0.711101 0.70309 -0.788521 0.615008 109.275 161.361)" fill="#4C8083"/>
<ellipse rx="20.5499" ry="3.45745" transform="matrix(0.999874 -0.0158927 -0.015323 0.999883 108.625 177.062)" fill="#4C8083"/>
<ellipse rx="2.60465" ry="7.52777" transform="matrix(0.955462 0.295113 -0.371808 0.928309 124.975 159.659)" fill="white"/>
<ellipse rx="5.21127" ry="7.93076" transform="matrix(0.807943 0.589261 -0.687127 0.726538 107.818 163.655)" fill="white"/>
<ellipse rx="5.02124" ry="10.3591" transform="matrix(0.807943 0.589261 -0.687127 0.726538 110.021 167.082)" fill="#4C8083"/>
<ellipse rx="2.72645" ry="7.98094" transform="matrix(0.482289 0.876012 -0.920475 0.390802 119.373 154.842)" fill="#FF6E33"/>
<ellipse cx="118.447" cy="155.145" rx="2.73458" ry="2.26014" fill="black"/>
<ellipse cx="118.056" cy="153.914" rx="1.28686" ry="1.02917" fill="#C4C4C4"/>
<path d="M273.982 175.171L293.812 171.5L309.971 171.5L322.31 202.943L307.457 212.5L267.818 209.053L264.434 197.33L273.982 175.171Z" fill="#8B796A" fill-opacity="0.55"/>
<path d="M420.06 93.7534L428.266 92.5L434.952 92.5L440.058 103.236L433.912 106.5L417.51 105.323L416.109 101.32L420.06 93.7534Z" fill="#8B796A" fill-opacity="0.55"/>
<path d="M435.417 260.288L412.402 251.5L400.322 256.307L387.171 282.176L400.322 291.5L435.417 288.137L445.047 266.955L435.417 260.288Z" fill="#8B796A" fill-opacity="0.55"/>
<path d="M170.648 369.169L153.982 364.5L145.234 367.054L135.711 380.798L145.234 385.752L170.648 383.965L177.621 372.711L170.648 369.169Z" fill="#8B796A" fill-opacity="0.55"/>
<path d="M38.9277 406.5C38.4368 371.922 68.9673 299.779 195.016 287.832C321.065 275.884 354.863 230.951 356.499 207.002C356.826 182.919 368 130 467 130" stroke="#55819A" stroke-width="50"/>
<path d="M50.7988 406.416C50.3077 370.981 80.8528 297.051 206.962 284.808C333.071 272.564 366.885 226.517 368.522 201.975C368.85 177.295 371.471 122.662 463.009 122" stroke="#BAE4E7" stroke-opacity="0.04" stroke-width="40"/>
<path d="M417.703 218.186L417.34 276.115" stroke="#618760" stroke-opacity="0.76" stroke-width="5"/>
<path d="M417.703 218.186L417.34 276.115" stroke="#618760" stroke-opacity="0.76" stroke-width="5"/>
<path d="M417.501 275.195C417.615 257.669 418.417 219.975 453.187 230.443" stroke="#618760" stroke-opacity="0.76" stroke-width="4"/>
<path d="M417.501 275.195C417.615 257.669 418.417 219.975 453.187 230.443" stroke="#618760" stroke-opacity="0.76" stroke-width="4"/>
<path d="M416.721 275.195C416.607 257.669 415.806 219.975 381.036 230.443" stroke="#618760" stroke-opacity="0.76" stroke-width="4"/>
<path d="M416.721 275.195C416.607 257.669 415.806 219.975 381.036 230.443" stroke="#618760" stroke-opacity="0.76" stroke-width="4"/>
<path d="M295.695 149.5L295.367 198.762" stroke="#618760" stroke-opacity="0.76" stroke-width="5"/>
<path d="M295.682 197.611C295.785 182.707 296.508 150.653 327.898 159.555" stroke="#618760" stroke-opacity="0.76" stroke-width="4"/>
<path d="M294.967 195.611C294.864 180.707 294.14 148.653 262.751 157.555" stroke="#618760" stroke-opacity="0.76" stroke-width="4"/>
<rect y="400.5" width="467.001" height="7" fill="#A2998C"/>
<path d="M0 251.998H147.684L148.575 252.772C151.829 255.598 151.378 260.777 147.684 262.998V262.998H0V251.998Z" fill="#8F745F"/>
<path d="M411.298 60.1815L426.458 99.0079L417.635 84.7089L404.361 67.5431" stroke="#618760" stroke-opacity="0.76" stroke-width="5"/>
<path d="M434.081 56.6752L426.769 100.143L421.852 56.838" stroke="#618760" stroke-opacity="0.76" stroke-width="5"/>
<path d="M450.469 67.7667L428.198 99.4441L442.457 60.1826" stroke="#618760" stroke-opacity="0.76" stroke-width="5"/>
<path d="M143.117 335.501L157.628 374.327L149.183 360.028L136.477 342.862" stroke="#618760" stroke-opacity="0.76" stroke-width="5"/>
<path d="M163.649 330.956L156.65 374.424L151.944 331.119" stroke="#618760" stroke-opacity="0.76" stroke-width="5"/>
<path d="M179.665 342.084L158.348 373.762L171.996 334.5" stroke="#618760" stroke-opacity="0.76" stroke-width="5"/>
<rect x="75" y="46" width="7" height="67" rx="3.5" fill="#BDAB90"/>
<rect x="46" y="33.9844" width="7" height="86" rx="3.5" fill="#BDAB90"/>
<rect x="48.75" y="2.76074" width="1.7701" height="11.7695" rx="0.885048" fill="#656565"/>
<rect x="43" y="11.2832" width="13.7182" height="29.2209" rx="6.85912" fill="#9E7969"/>
<rect x="77.1133" y="19" width="1.7752" height="10.9118" rx="0.887601" fill="#656565"/>
<rect x="71.3438" y="26.9014" width="13.7578" height="27.0914" rx="6.87891" fill="#9E7969"/>
<rect x="103" y="31" width="7" height="77" rx="3.5" fill="#BDAB90"/>
<rect x="105.578" width="1.7701" height="11.7695" rx="0.885048" fill="#656565"/>
<rect x="99.8281" y="8.52246" width="13.7182" height="29.2209" rx="6.85912" fill="#9E7969"/>
<path d="M146.251 107.455C146.68 114.119 106.584 114.799 84.6056 116.217C62.6273 117.634 20.8866 133.549 20.4568 126.885C20.027 120.221 58.1548 98.7011 80.1331 97.2836C102.111 95.8661 145.821 100.791 146.251 107.455Z" fill="#A99D8B"/>
</svg>
