<svg width="469" height="481" viewBox="0 0 469 481" fill="none" xmlns="http://www.w3.org/2000/svg">
<ellipse cx="386.672" cy="37.5" rx="38.4177" ry="37.5" fill="#FF6E33"/>
<path d="M218.518 119.879C123.802 69.9471 33.3745 118.784 0 149.444V474H467V89C423.637 120.098 313.233 169.811 218.518 119.879Z" fill="#8CB1B5" fill-opacity="0.67"/>
<path d="M183.892 196.027C88.6891 147.784 33.3742 212.868 0 235.407V474H466.996L469 134C425.638 156.861 342.498 276.399 183.892 196.027Z" fill="#92B48A"/>
<path d="M143.816 202.044C144.801 201.732 145.507 202.986 144.768 203.735L125.593 223.177C125.132 223.643 124.379 223.547 124.06 222.981L117.672 211.635C117.354 211.069 117.639 210.333 118.253 210.139L143.816 202.044Z" fill="#2E2E2E"/>
<path d="M145.103 203.248L125.915 225.372L121.535 220.279L145.103 203.248Z" fill="#504F4F"/>
<ellipse cx="108.429" cy="261.978" rx="23.5771" ry="35.3148" fill="#4C8083"/>
<ellipse cx="106.811" cy="273.618" rx="21.6818" ry="35.9281" fill="#FF6E33"/>
<ellipse rx="12.8653" ry="18.7191" transform="matrix(0.786779 0.617234 -0.713143 0.701018 106.808 239.816)" fill="#4C8083"/>
<ellipse cx="106.811" cy="271.942" rx="11.4439" ry="40.4222" fill="#59EBFF"/>
<ellipse rx="14.8124" ry="34.4325" transform="matrix(0.994666 -0.103144 0.137725 0.990471 91.3116 266.471)" fill="#4C8083"/>
<ellipse rx="14.8124" ry="34.4133" transform="matrix(0.994661 0.103198 -0.112765 0.993622 122.716 266.561)" fill="#4C8083"/>
<ellipse rx="12.862" ry="21.128" transform="matrix(0.7111 0.703091 -0.78852 0.615009 109.111 224.363)" fill="#4C8083"/>
<ellipse rx="20.5499" ry="3.45745" transform="matrix(0.999874 -0.0158927 -0.015323 0.999883 108.463 240.064)" fill="#4C8083"/>
<ellipse rx="2.60465" ry="7.52776" transform="matrix(0.955462 0.295113 -0.371808 0.92831 124.811 222.661)" fill="white"/>
<ellipse rx="5.21126" ry="7.93075" transform="matrix(0.807942 0.589261 -0.687126 0.726538 107.652 226.657)" fill="white"/>
<ellipse rx="5.02123" ry="10.3591" transform="matrix(0.807942 0.589261 -0.687126 0.726538 109.857 230.084)" fill="#4C8083"/>
<ellipse rx="2.72645" ry="7.98093" transform="matrix(0.482288 0.876012 -0.920474 0.390803 119.207 217.844)" fill="#FF6E33"/>
<ellipse cx="118.285" cy="218.147" rx="2.73458" ry="2.26014" fill="black"/>
<ellipse cx="117.892" cy="216.916" rx="1.28686" ry="1.02917" fill="#C4C4C4"/>
<path d="M273.982 248.671L293.812 245L309.971 245L322.31 276.443L307.457 286L267.818 282.553L264.434 270.83L273.982 248.671Z" fill="#8B796A" fill-opacity="0.55"/>
<path d="M420.06 167.253L428.266 166L434.952 166L440.058 176.736L433.912 180L417.51 178.823L416.109 174.82L420.06 167.253Z" fill="#8B796A" fill-opacity="0.55"/>
<path d="M435.417 333.788L412.402 325L400.322 329.807L387.171 355.676L400.322 365L435.417 361.637L445.047 340.455L435.417 333.788Z" fill="#8B796A" fill-opacity="0.55"/>
<path d="M170.648 442.669L153.982 438L145.234 440.554L135.711 454.298L145.234 459.252L170.648 457.465L177.621 446.211L170.648 442.669Z" fill="#8B796A" fill-opacity="0.55"/>
<path d="M38.9238 480C38.4329 445.422 68.9634 373.279 195.012 361.332C321.06 349.384 354.858 304.451 356.494 280.502C356.822 256.419 375.508 203.646 467.001 203" stroke="#55819A" stroke-width="50"/>
<path d="M50.7988 479.916C50.3077 444.481 80.8528 370.551 206.962 358.308C333.071 346.064 366.885 300.017 368.522 275.475C368.849 250.795 371.471 196.162 463.008 195.5" stroke="#BAE4E7" stroke-opacity="0.04" stroke-width="40"/>
<path d="M417.703 291.686L417.34 349.615" stroke="#618760" stroke-width="5"/>
<path d="M417.703 291.686L417.34 349.615" stroke="#618760" stroke-width="5"/>
<path d="M417.501 348.695C417.615 331.169 418.417 293.475 453.187 303.943" stroke="#618760" stroke-width="4"/>
<path d="M417.501 348.695C417.615 331.169 418.417 293.475 453.187 303.943" stroke="#618760" stroke-width="4"/>
<path d="M416.717 348.695C416.603 331.169 415.802 293.475 381.032 303.943" stroke="#618760" stroke-width="4"/>
<path d="M416.717 348.695C416.603 331.169 415.802 293.475 381.032 303.943" stroke="#618760" stroke-width="4"/>
<path d="M295.695 223L295.367 272.262" stroke="#618760" stroke-width="5"/>
<path d="M295.682 271.111C295.785 256.207 296.508 224.153 327.898 233.055" stroke="#618760" stroke-width="4"/>
<path d="M294.967 269.111C294.864 254.207 294.14 222.153 262.751 231.055" stroke="#618760" stroke-width="4"/>
<rect y="474" width="467" height="7" fill="#A2998C"/>
<path d="M0 316H147.684L148.575 316.774C151.829 319.6 151.378 324.779 147.684 327V327H0V316Z" fill="#8F745F"/>
<path d="M411.294 133.682L426.454 172.508L417.631 158.209L404.357 141.043" stroke="#618760" stroke-width="5"/>
<path d="M434.077 130.175L426.765 173.643L421.848 130.338" stroke="#618760" stroke-width="5"/>
<path d="M450.469 141.267L428.198 172.944L442.457 133.683" stroke="#618760" stroke-width="5"/>
<path d="M143.117 409.001L157.628 447.827L149.183 433.528L136.477 416.362" stroke="#618760" stroke-width="5"/>
<path d="M163.649 404.456L156.65 447.924L151.944 404.619" stroke="#618760" stroke-width="5"/>
<path d="M179.665 415.584L158.348 447.262L171.996 408" stroke="#618760" stroke-width="5"/>
</svg>
