<svg width="762" height="625" viewBox="0 0 762 625" fill="none" xmlns="http://www.w3.org/2000/svg">
<path fill-rule="evenodd" clip-rule="evenodd" d="M147.215 7.56506C86.5794 3.81685 34.386 49.9331 30.6378 110.569L6.78667 496.414C3.03846 557.05 49.1548 609.243 109.79 612.991L189.443 617.915C250.079 621.663 302.272 575.547 306.02 514.911L329.871 129.066C333.62 68.4304 287.503 16.237 226.868 12.4888L147.215 7.56506ZM155.231 555.909C210.926 559.352 258.866 516.994 262.308 461.3C265.751 405.606 223.393 357.666 167.699 354.223C112.005 350.78 64.0646 393.138 60.6218 448.833C57.1791 504.527 99.5372 552.467 155.231 555.909Z" fill="#2E2E2E"/>
<path fill-rule="evenodd" clip-rule="evenodd" d="M614.785 7.56506C675.421 3.81685 727.614 49.9331 731.362 110.569L755.214 496.414C758.962 557.05 712.845 609.243 652.21 612.991L572.557 617.915C511.922 621.663 459.728 575.547 455.98 514.911L432.129 129.066C428.381 68.4304 474.497 16.237 535.133 12.4888L614.785 7.56506ZM606.769 555.909C551.075 559.352 503.135 516.994 499.692 461.3C496.249 405.606 538.607 357.666 594.301 354.223C649.996 350.78 697.936 393.138 701.378 448.833C704.821 504.527 662.463 552.467 606.769 555.909Z" fill="#2E2E2E"/>
<rect x="298.824" y="194.772" width="163.871" height="139.772" fill="#2E2E2E"/>
</svg>
