<svg width="1004" height="884" viewBox="0 0 1004 884" fill="none" xmlns="http://www.w3.org/2000/svg">
<path fill-rule="evenodd" clip-rule="evenodd" d="M200.427 0C89.9698 0 0.426758 89.5429 0.426758 200V683.031C0.426758 793.488 89.9699 883.031 200.427 883.031H236.867C347.324 883.031 436.867 793.488 436.867 683.031V200C436.867 89.5431 347.324 0 236.867 0H200.427ZM221.457 796.011C302.689 796.011 368.54 730.16 368.54 648.928C368.54 567.697 302.689 501.845 221.457 501.845C140.225 501.845 74.3743 567.697 74.3743 648.928C74.3743 730.16 140.225 796.011 221.457 796.011Z" fill="#2E2E2E"/>
<path fill-rule="evenodd" clip-rule="evenodd" d="M767 0C656.543 0 567 89.5429 567 200V683.031C567 793.488 656.543 883.031 767 883.031H803.441C913.897 883.031 1003.44 793.488 1003.44 683.031V200C1003.44 89.5431 913.897 0 803.441 0H767ZM788.03 796.011C869.262 796.011 935.113 730.16 935.113 648.928C935.113 567.697 869.262 501.845 788.03 501.845C706.799 501.845 640.948 567.697 640.948 648.928C640.948 730.16 706.799 796.011 788.03 796.011Z" fill="#2E2E2E"/>
<rect x="408.615" y="269.784" width="238.555" height="203.474" fill="#2E2E2E"/>
</svg>
