<svg width="422" height="638" viewBox="0 0 422 638" fill="none" xmlns="http://www.w3.org/2000/svg">
<path d="M189.814 33.8169C199.61 18.1803 222.39 18.1803 232.186 33.8168L291.399 128.333C301.83 144.983 289.861 166.606 270.213 166.606H151.787C132.139 166.606 120.17 144.983 130.601 128.333L189.814 33.8169Z" fill="#2E2E2E"/>
<rect x="178" y="532" width="82.3744" height="105.331" fill="#2E2E2E"/>
<path d="M104.298 366.233C112.935 354.162 126.866 347 141.708 347H285.821C301.08 347 315.346 354.567 323.905 367.2L373.359 440.2C394.052 470.746 372.17 512 335.275 512H89.476C52.0437 512 30.2842 469.675 52.0659 439.233L104.298 366.233Z" fill="#2E2E2E"/>
<path d="M128.425 211.968C136.906 198.892 151.432 191 167.018 191H259.568C275.557 191 290.399 199.303 298.766 212.928L325.612 256.643C344.434 287.293 322.381 326.715 286.413 326.715H138.664C102.186 326.715 80.2213 286.288 100.071 255.684L128.425 211.968Z" fill="#2E2E2E"/>
</svg>
