<svg width="625" height="915" viewBox="0 0 625 915" fill="none" xmlns="http://www.w3.org/2000/svg">
<path d="M291.314 33.8168C301.11 18.1803 323.89 18.1803 333.686 33.8168L443.108 208.477C453.539 225.128 441.57 246.75 421.922 246.75H203.078C183.43 246.75 171.461 225.128 181.892 208.477L291.314 33.8168Z" fill="#2E2E2E"/>
<rect x="252" y="759" width="122" height="156" fill="#2E2E2E"/>
<path d="M161.238 511.865C169.731 498.848 184.222 491 199.764 491H433.796C449.742 491 464.551 499.259 472.931 512.825L581.651 688.825C600.582 719.471 578.538 759 542.516 759H84.9364C48.4028 759 26.4481 718.462 46.4108 687.865L161.238 511.865Z" fill="#2E2E2E"/>
<path d="M196.769 286.968C205.25 273.892 219.776 266 235.362 266H396.833C412.822 266 427.664 274.303 436.031 287.928L502.969 396.928C521.791 427.578 499.737 467 463.77 467H164.664C128.187 467 106.221 426.573 126.071 395.968L196.769 286.968Z" fill="#2E2E2E"/>
</svg>
