<svg width="495" height="724" viewBox="0 0 495 724" fill="none" xmlns="http://www.w3.org/2000/svg">
<path d="M226.082 33.8168C235.878 18.1803 258.657 18.1803 268.453 33.8168L345.607 156.97C356.038 173.62 344.069 195.243 324.421 195.243H170.114C150.466 195.243 138.497 173.62 148.928 156.97L226.082 33.8168Z" fill="#2E2E2E"/>
<rect x="199.397" y="600.564" width="96.5333" height="123.436" fill="#2E2E2E"/>
<path d="M124.739 409.372C133.232 396.355 147.723 388.507 163.265 388.507H337.889C353.835 388.507 368.644 396.766 377.024 410.332L451.187 530.389C470.118 561.035 448.073 600.564 412.051 600.564H84.9364C48.4028 600.564 26.4481 560.026 46.4107 529.429L124.739 409.372Z" fill="#2E2E2E"/>
<path d="M152.856 231.443C161.337 218.367 175.863 210.474 191.449 210.474H308.625C324.615 210.474 339.457 218.777 347.824 232.402L388.995 299.445C407.817 330.094 385.764 369.517 349.796 369.517H147.965C111.487 369.517 89.5221 329.089 109.372 298.485L152.856 231.443Z" fill="#2E2E2E"/>
</svg>
