<svg width="352" height="532" viewBox="0 0 352 532" fill="none" xmlns="http://www.w3.org/2000/svg">
<path d="M154.721 33.8168C164.517 18.1803 187.296 18.1803 197.093 33.8168L238.946 100.623C249.377 117.274 237.408 138.896 217.76 138.896H134.053C114.406 138.896 102.436 117.274 112.868 100.623L154.721 33.8168Z" fill="#2E2E2E"/>
<rect x="148.395" y="443.519" width="68.674" height="87.8127" fill="#2E2E2E"/>
<path d="M84.6628 308.52C93.2997 296.449 107.23 289.287 122.073 289.287H234.226C249.485 289.287 263.751 296.854 272.309 309.488L303.172 355.045C323.866 385.591 301.984 426.845 265.089 426.845H89.476C52.0438 426.845 30.2842 384.52 52.0659 354.078L84.6628 308.52Z" fill="#2E2E2E"/>
<path d="M104.804 180.202C113.285 167.125 127.811 159.233 143.397 159.233H212.117C228.106 159.233 242.948 167.536 251.316 181.161L264.3 202.304C283.122 232.954 261.069 272.376 225.101 272.376H129.683C93.2054 272.376 71.2402 231.949 91.09 201.345L104.804 180.202Z" fill="#2E2E2E"/>
</svg>
