<svg width="951" height="597" viewBox="0 0 951 597" fill="none" xmlns="http://www.w3.org/2000/svg">
<ellipse rx="246.401" ry="255.254" transform="matrix(-0.98095 0.194262 0.194262 0.98095 255.294 298.258)" fill="#2E2E2E"/>
<path d="M616.042 314.765C627.181 306.991 626.604 290.278 614.947 283.046L452.641 182.345C439.724 174.331 423.225 183.786 423.747 198.903L430.958 407.838C431.48 422.955 448.603 431.612 460.946 422.999L616.042 314.765Z" fill="#2E2E2E"/>
<ellipse cx="350.21" cy="239.293" rx="61.9116" ry="62.403" fill="#F7EAD9"/>
<path d="M674.509 346.902C703.69 313.239 705.586 292.802 674.509 253.543" stroke="#2E2E2E" stroke-width="40"/>
<path d="M768.851 399.969C828.483 329.808 832.356 287.214 768.851 205.389" stroke="#2E2E2E" stroke-width="40"/>
<path d="M846.486 465.811C955.6 343.561 962.688 269.345 846.486 126.771" stroke="#2E2E2E" stroke-width="40"/>
</svg>
