<svg width="935" height="478" viewBox="0 0 935 478" fill="none" xmlns="http://www.w3.org/2000/svg">
<ellipse rx="197.194" ry="204.279" transform="matrix(-0.98095 0.194262 0.194262 0.98095 233.121 238.695)" fill="#2E2E2E"/>
<path d="M517.125 255.186C528.264 247.413 527.687 230.7 516.03 223.468L397.071 149.661C384.154 141.647 367.656 151.101 368.178 166.219L373.463 319.354C373.984 334.471 391.108 343.128 403.451 334.514L517.125 255.186Z" fill="#2E2E2E"/>
<circle cx="308.878" cy="191.463" r="49.7168" fill="#F7EAD9"/>
<path d="M593.428 294.069C630.302 252.113 632.697 226.642 593.428 177.711" stroke="#2E2E2E" stroke-width="40"/>
<path d="M711.901 361.769C787.015 273.279 791.894 219.558 711.901 116.358" stroke="#2E2E2E" stroke-width="40"/>
<path d="M810.277 444.277C945.481 290.565 954.264 197.248 810.277 17.9823" stroke="#2E2E2E" stroke-width="40"/>
</svg>
