<svg width="837" height="828" viewBox="0 0 837 828" fill="none" xmlns="http://www.w3.org/2000/svg">
<path d="M142.391 33.6418C135.565 26.7987 124.485 26.7842 117.642 33.6095L6.12693 144.833C-0.71618 151.658 -0.730674 162.739 6.09456 169.582C12.9198 176.425 24.0002 176.439 30.8433 169.614L129.968 70.7487L228.833 169.873C235.658 176.716 246.739 176.731 253.582 169.905C260.425 163.08 260.439 152 253.614 145.157L142.391 33.6418ZM116.609 822.841C123.435 829.684 134.515 829.699 141.358 822.873L252.873 711.65C259.716 704.825 259.731 693.744 252.905 686.901C246.08 680.058 235 680.044 228.157 686.869L129.032 785.734L30.167 686.61C23.3418 679.767 12.2614 679.752 5.41831 686.577C-1.4248 693.403 -1.43929 704.483 5.38594 711.326L116.609 822.841ZM112.5 45.9771L111.5 810.46L146.5 810.506L147.5 46.0229L112.5 45.9771Z" fill="#2E2E2E"/>
<path d="M372.69 230.561C350.104 260.838 332.85 294.892 321.913 330.776C310.975 366.661 306.569 403.675 308.946 439.703C311.322 475.732 320.435 510.071 335.763 540.759C351.091 571.446 372.335 597.882 398.282 618.557C424.229 639.232 454.37 653.74 486.985 661.254C519.599 668.769 554.049 669.141 588.367 662.351C622.684 655.561 656.198 641.74 686.994 621.679C717.79 601.618 745.265 575.709 767.851 545.432L570.27 387.996L372.69 230.561Z" fill="#2E2E2E"/>
<ellipse cx="367.839" cy="321.589" rx="112" ry="115.5" fill="#2E2E2E"/>
<path d="M201.059 351.901C195.891 349.581 194.777 342.717 198.928 338.781L265.782 275.389C270.448 270.964 278.092 273.504 279.117 279.82L295.48 380.57C296.506 386.885 290.084 391.865 284.276 389.258L201.059 351.901Z" fill="#2E2E2E"/>
<rect x="462.839" y="589.089" width="59" height="165" rx="11" fill="#2E2E2E"/>
<rect x="379.839" y="768.089" width="53" height="198" rx="14" transform="rotate(-90 379.839 768.089)" fill="#2E2E2E"/>
</svg>
