<svg width="698" height="611" viewBox="0 0 698 611" fill="none" xmlns="http://www.w3.org/2000/svg">
<path d="M121.607 4.3934C115.749 -1.46447 106.251 -1.46447 100.393 4.3934L4.93399 99.8528C-0.923878 105.711 -0.923877 115.208 4.93399 121.066C10.7919 126.924 20.2893 126.924 26.1472 121.066L111 36.2132L195.853 121.066C201.711 126.924 211.208 126.924 217.066 121.066C222.924 115.208 222.924 105.711 217.066 99.8528L121.607 4.3934ZM100.393 606.607C106.251 612.464 115.749 612.464 121.607 606.607L217.066 511.147C222.924 505.289 222.924 495.792 217.066 489.934C211.208 484.076 201.711 484.076 195.853 489.934L111 574.787L26.1472 489.934C20.2893 484.076 10.7919 484.076 4.934 489.934C-0.923861 495.792 -0.92386 505.289 4.934 511.147L100.393 606.607ZM96 15L96 596L126 596L126 15L96 15Z" fill="#2E2E2E"/>
<path d="M333.097 163.554C318.586 183.007 307.501 204.885 300.474 227.94C293.447 250.996 290.616 274.776 292.143 297.923C293.67 321.071 299.524 343.133 309.372 362.849C319.221 382.565 332.869 399.549 349.539 412.832C366.21 426.115 385.574 435.437 406.529 440.265C427.483 445.092 449.616 445.332 471.664 440.969C493.712 436.607 515.244 427.727 535.03 414.839C554.815 401.95 572.468 385.304 586.978 365.851L460.038 264.703L333.097 163.554Z" fill="#2E2E2E"/>
<ellipse cx="330" cy="222" rx="72" ry="74" fill="#2E2E2E"/>
<path d="M226.702 243.252C221.535 240.932 220.42 234.068 224.571 230.132L260.502 196.061C265.168 191.637 272.812 194.177 273.838 200.493L282.632 254.641C283.658 260.957 277.235 265.937 271.427 263.33L226.702 243.252Z" fill="#2E2E2E"/>
<rect x="391" y="394" width="38" height="106" rx="11" fill="#2E2E2E"/>
<rect x="338" y="509" width="34" height="127" rx="14" transform="rotate(-90 338 509)" fill="#2E2E2E"/>
</svg>
