<svg width="2059" height="828" viewBox="0 0 2059 828" fill="none" xmlns="http://www.w3.org/2000/svg">
<path d="M0 613.475C0 571.645 26.5781 534.566 67.1452 524.366C149.397 503.684 297.093 475.359 452.657 488.237C687.989 507.719 1065.51 587.205 1254.28 575.906C1443.04 564.606 1613.79 510.404 1771.51 515.08C1852.35 517.476 1925.85 524.9 1978.3 531.568C2025.22 537.534 2059 577.918 2059 625.221V730C2059 784.124 2015.12 828 1961 828H98C43.8761 828 0 784.124 0 730V613.475Z" fill="#9BBB82"/>
<rect x="268" y="679" width="1557" height="149" fill="#587A3D"/>
<path d="M239 0H1820V490H239V0Z" fill="#F8F0E7"/>
<ellipse cx="1119" cy="605.5" rx="522" ry="115.5" fill="#D9D9D9"/>
<rect x="963.021" y="220.115" width="84.2782" height="231.543" fill="#E0D5C5"/>
<rect x="1227" y="242" width="84.2782" height="231.543" fill="#E0D5C5"/>
<rect x="1345" y="327" width="84.2782" height="231.543" fill="#E0D5C5"/>
<rect x="861" y="280.441" width="83.3911" height="195.171" fill="#E0D5C5"/>
<rect x="1065.93" y="150.031" width="133.071" height="353.969" fill="#E0D5C5"/>
<rect x="1089" y="123" width="86" height="43" fill="#E0D5C5"/>
<rect x="1103" y="105" width="58" height="29" fill="#E0D5C5"/>
<path d="M813 339.031C907.904 341.296 1159 459 1159 459H467C467 459 718.096 336.766 813 339.031Z" fill="#E0D5C5"/>
<path d="M1405 370.031C1499.9 372.296 1751 490 1751 490H1059C1059 490 1310.1 367.766 1405 370.031Z" fill="#BFBFBF"/>
<path d="M183.162 477.558C183.162 440.491 204.128 406.597 238.945 393.88C306.385 369.248 426.691 335.827 553.378 351.118C745.849 374.348 1054.62 469.129 1209 455.655C1363.38 442.181 1503.04 377.55 1632.03 383.125C1694.38 385.82 1751.38 393.844 1793.65 401.417C1837.32 409.243 1867.16 447.952 1867.16 492.323V658.257C1867.16 712.381 1823.29 756.257 1769.16 756.257H281.162C227.038 756.257 183.162 712.381 183.162 658.257V477.558Z" fill="#89AC6E"/>
<rect x="674" y="246" width="44" height="175" fill="#8F745F"/>
<ellipse cx="696.143" cy="127.656" rx="79.8818" ry="73.6562" fill="#6F9651"/>
<ellipse cx="632.882" cy="211.694" rx="79.8818" ry="73.6562" fill="#6F9651"/>
<ellipse cx="763.696" cy="211.694" rx="79.8818" ry="73.6562" fill="#6F9651"/>
<ellipse cx="696.143" cy="127.656" rx="79.8818" ry="73.6562" fill="#6F9651"/>
<rect x="428.16" y="359.802" width="43.9618" height="140.392" fill="#8F745F"/>
<ellipse cx="450.143" cy="241.656" rx="79.8818" ry="73.6562" fill="#6F9651"/>
<ellipse cx="386.882" cy="325.694" rx="79.8818" ry="73.6562" fill="#6F9651"/>
<ellipse cx="517.696" cy="325.694" rx="79.8818" ry="73.6562" fill="#6F9651"/>
<ellipse cx="450.143" cy="241.656" rx="79.8818" ry="73.6562" fill="#6F9651"/>
<path d="M1114 645C1114 588.014 915.171 570.14 978 521.5C1008.83 497.633 1086.06 464.869 1088 443" stroke="#DDDAD7" stroke-opacity="0.13" stroke-width="80"/>
<rect x="647" y="645" width="846" height="111" fill="#F7EAD9" fill-opacity="0.66"/>
<path d="M738.358 710.04H757.654C757.078 712.088 756.246 713.976 755.158 715.704C754.07 717.432 752.726 718.968 751.126 720.312C749.59 721.656 747.734 722.712 745.558 723.48C743.382 724.184 740.918 724.536 738.166 724.536C734.006 724.536 730.262 723.576 726.934 721.656C723.67 719.736 721.078 717.048 719.158 713.592C717.238 710.072 716.278 706.008 716.278 701.4C716.278 696.728 717.238 692.696 719.158 689.304C721.142 685.912 723.798 683.32 727.126 681.528C730.454 679.672 734.134 678.744 738.166 678.744C742.454 678.744 746.07 679.672 749.014 681.528C752.022 683.32 754.358 685.688 756.022 688.632L767.734 681.816C765.686 678.68 763.222 675.992 760.342 673.752C757.526 671.448 754.262 669.656 750.55 668.376C746.902 667.096 742.774 666.456 738.166 666.456C732.982 666.456 728.182 667.288 723.766 668.952C719.35 670.616 715.51 672.984 712.246 676.056C708.982 679.128 706.422 682.84 704.566 687.192C702.774 691.48 701.878 696.216 701.878 701.4C701.878 706.584 702.742 711.352 704.47 715.704C706.262 720.056 708.758 723.8 711.958 726.936C715.222 730.072 719.03 732.504 723.382 734.232C727.798 735.96 732.598 736.824 737.782 736.824C743.286 736.824 748.182 735.832 752.47 733.848C756.758 731.864 760.342 729.144 763.222 725.688C766.166 722.168 768.31 718.136 769.654 713.592C771.062 709.048 771.67 704.216 771.478 699.096H738.358V710.04ZM790.367 721.272C790.367 719.992 790.655 718.936 791.231 718.104C791.807 717.208 792.703 716.536 793.919 716.088C795.135 715.576 796.703 715.32 798.623 715.32C800.991 715.32 803.231 715.64 805.343 716.28C807.519 716.92 809.471 717.88 811.199 719.16V713.4C810.559 712.632 809.503 711.832 808.031 711C806.559 710.168 804.735 709.464 802.559 708.888C800.447 708.312 797.983 708.024 795.167 708.024C789.663 708.024 785.407 709.272 782.399 711.768C779.391 714.264 777.887 717.656 777.887 721.944C777.887 724.952 778.591 727.512 779.999 729.624C781.471 731.672 783.391 733.24 785.759 734.328C788.127 735.416 790.687 735.96 793.439 735.96C796.127 735.96 798.687 735.48 801.119 734.52C803.615 733.56 805.631 732.12 807.167 730.2C808.767 728.28 809.567 725.912 809.567 723.096L808.031 717.336C808.031 719.448 807.551 721.272 806.591 722.808C805.631 724.28 804.383 725.432 802.847 726.264C801.311 727.032 799.583 727.416 797.663 727.416C796.319 727.416 795.071 727.192 793.919 726.744C792.831 726.232 791.967 725.528 791.327 724.632C790.687 723.672 790.367 722.552 790.367 721.272ZM785.567 703.32C786.207 702.872 787.199 702.328 788.543 701.688C789.887 701.048 791.487 700.504 793.343 700.056C795.199 699.608 797.151 699.384 799.199 699.384C800.543 699.384 801.759 699.512 802.847 699.768C803.935 700.024 804.863 700.44 805.631 701.016C806.463 701.592 807.071 702.328 807.455 703.224C807.839 704.056 808.031 705.08 808.031 706.296V735H820.031V703.704C820.031 700.696 819.199 698.168 817.535 696.12C815.871 694.008 813.567 692.408 810.623 691.32C807.679 690.232 804.319 689.688 800.543 689.688C796.447 689.688 792.735 690.264 789.407 691.416C786.079 692.504 783.263 693.656 780.959 694.872L785.567 703.32ZM843.789 690.84H831.597V735H843.789V690.84ZM856.749 703.8L862.413 693.24C861.517 692.088 860.333 691.224 858.861 690.648C857.453 690.072 855.949 689.784 854.349 689.784C852.045 689.784 849.805 690.616 847.629 692.28C845.453 693.88 843.693 696.056 842.349 698.808C841.005 701.496 840.333 704.6 840.333 708.12L843.789 711.576C843.789 709.464 844.045 707.672 844.557 706.2C845.133 704.664 845.965 703.48 847.053 702.648C848.141 701.816 849.453 701.4 850.989 701.4C852.269 701.4 853.325 701.624 854.157 702.072C855.053 702.456 855.917 703.032 856.749 703.8ZM902.315 660.12V735H914.795V660.12H902.315ZM866.027 712.92C866.027 717.784 867.019 721.944 869.003 725.4C870.987 728.856 873.611 731.48 876.875 733.272C880.139 735.064 883.595 735.96 887.243 735.96C890.955 735.96 894.219 735.032 897.035 733.176C899.915 731.32 902.155 728.664 903.755 725.208C905.419 721.752 906.251 717.656 906.251 712.92C906.251 708.12 905.419 704.024 903.755 700.632C902.155 697.176 899.915 694.52 897.035 692.664C894.219 690.808 890.955 689.88 887.243 689.88C883.595 689.88 880.139 690.776 876.875 692.568C873.611 694.36 870.987 696.984 869.003 700.44C867.019 703.832 866.027 707.992 866.027 712.92ZM878.891 712.92C878.891 710.296 879.435 708.024 880.523 706.104C881.611 704.184 883.083 702.712 884.939 701.688C886.795 700.664 888.779 700.152 890.891 700.152C892.747 700.152 894.539 700.664 896.267 701.688C898.059 702.648 899.499 704.088 900.587 706.008C901.739 707.928 902.315 710.232 902.315 712.92C902.315 715.608 901.739 717.912 900.587 719.832C899.499 721.752 898.059 723.224 896.267 724.248C894.539 725.208 892.747 725.688 890.891 725.688C888.779 725.688 886.795 725.176 884.939 724.152C883.083 723.128 881.611 721.656 880.523 719.736C879.435 717.816 878.891 715.544 878.891 712.92ZM947.585 735.96C952.897 735.96 957.441 734.936 961.217 732.888C965.057 730.776 968.129 727.64 970.433 723.48L959.585 720.12C958.305 722.232 956.673 723.832 954.689 724.92C952.769 725.944 950.433 726.456 947.681 726.456C945.249 726.456 943.169 725.912 941.441 724.824C939.713 723.736 938.401 722.168 937.505 720.12C936.673 718.072 936.257 715.576 936.257 712.632C936.321 709.56 936.769 707 937.601 704.952C938.497 702.84 939.745 701.272 941.345 700.248C943.009 699.16 945.057 698.616 947.489 698.616C949.473 698.616 951.201 699.064 952.673 699.96C954.145 700.856 955.265 702.072 956.033 703.608C956.865 705.144 957.281 707 957.281 709.176C957.281 709.624 957.153 710.2 956.897 710.904C956.705 711.544 956.481 712.056 956.225 712.44L959.585 708.024H930.881V715.704H970.433C970.497 715.32 970.529 714.808 970.529 714.168C970.593 713.528 970.625 712.92 970.625 712.344C970.625 707.608 969.729 703.576 967.937 700.248C966.145 696.856 963.521 694.296 960.065 692.568C956.673 690.776 952.545 689.88 947.681 689.88C942.817 689.88 938.593 690.84 935.009 692.76C931.425 694.616 928.641 697.272 926.657 700.728C924.737 704.12 923.777 708.184 923.777 712.92C923.777 717.592 924.737 721.656 926.657 725.112C928.641 728.504 931.425 731.16 935.009 733.08C938.593 735 942.785 735.96 947.585 735.96ZM1008.52 708.12V735H1021.38V706.776C1021.38 701.464 1020.1 697.336 1017.54 694.392C1014.98 691.384 1011.08 689.88 1005.83 689.88C1002.69 689.88 1000 690.552 997.763 691.896C995.587 693.176 993.827 695.064 992.483 697.56V690.84H980.003V735H992.483V708.12C992.483 706.264 992.835 704.664 993.539 703.32C994.243 701.976 995.267 700.952 996.611 700.248C997.955 699.48 999.491 699.096 1001.22 699.096C1003.78 699.096 1005.64 699.864 1006.79 701.4C1007.94 702.936 1008.52 705.176 1008.52 708.12ZM1035.84 719.736L1029.79 727.512C1031.45 729.112 1033.31 730.616 1035.36 732.024C1037.47 733.368 1039.8 734.456 1042.36 735.288C1044.99 736.12 1047.87 736.536 1051 736.536C1056.06 736.536 1060.03 735.32 1062.91 732.888C1065.79 730.392 1067.23 726.936 1067.23 722.52C1067.23 719.832 1066.62 717.656 1065.4 715.992C1064.19 714.328 1062.56 712.952 1060.51 711.864C1058.52 710.712 1056.35 709.688 1053.98 708.792C1052.06 707.96 1050.33 707.256 1048.8 706.68C1047.32 706.104 1046.17 705.464 1045.34 704.76C1044.57 703.992 1044.19 703.128 1044.19 702.168C1044.19 701.08 1044.57 700.28 1045.34 699.768C1046.17 699.192 1047.29 698.904 1048.7 698.904C1050.81 698.904 1052.96 699.448 1055.13 700.536C1057.37 701.624 1059.29 703.032 1060.89 704.76L1066.36 697.08C1064.96 695.672 1063.32 694.456 1061.47 693.432C1059.61 692.344 1057.6 691.48 1055.42 690.84C1053.24 690.2 1050.91 689.88 1048.41 689.88C1045.47 689.88 1042.78 690.36 1040.35 691.32C1037.98 692.216 1036.09 693.592 1034.68 695.448C1033.28 697.24 1032.57 699.448 1032.57 702.072C1032.57 704.824 1033.18 707.096 1034.4 708.888C1035.68 710.616 1037.28 712.024 1039.2 713.112C1041.12 714.136 1043.1 715.032 1045.15 715.8C1047.32 716.504 1049.12 717.176 1050.52 717.816C1051.93 718.456 1052.99 719.192 1053.69 720.024C1054.46 720.792 1054.84 721.752 1054.84 722.904C1054.84 724.184 1054.4 725.208 1053.5 725.976C1052.6 726.68 1051.32 727.032 1049.66 727.032C1048.38 727.032 1047 726.776 1045.53 726.264C1044.12 725.752 1042.62 724.984 1041.02 723.96C1039.42 722.872 1037.69 721.464 1035.84 719.736ZM1119.86 699L1152.31 735H1166.61L1131.09 695.832C1128.73 693.208 1126.68 690.936 1124.95 689.016C1123.29 687.032 1122.45 685.048 1122.45 683.064C1122.45 681.272 1123.06 679.736 1124.28 678.456C1125.49 677.112 1127.25 676.44 1129.56 676.44C1131.03 676.44 1132.28 676.76 1133.3 677.4C1134.33 677.976 1135.09 678.776 1135.61 679.8C1136.18 680.824 1136.47 681.944 1136.47 683.16C1136.47 685.016 1135.51 686.968 1133.59 689.016C1131.67 691 1128.92 692.92 1125.33 694.776C1123.99 695.416 1122.33 696.152 1120.34 696.984C1118.42 697.752 1116.41 698.68 1114.29 699.768C1112.18 700.856 1110.23 702.2 1108.44 703.8C1106.65 705.336 1105.17 707.192 1104.02 709.368C1102.87 711.544 1102.29 714.136 1102.29 717.144C1102.29 721.048 1103.35 724.44 1105.46 727.32C1107.57 730.136 1110.36 732.312 1113.81 733.848C1117.27 735.384 1121.05 736.152 1125.14 736.152C1129.75 736.152 1134.01 735.352 1137.91 733.752C1141.81 732.152 1145.4 730.072 1148.66 727.512C1151.99 724.888 1155 721.976 1157.69 718.776C1160.44 715.576 1162.93 712.408 1165.17 709.272L1156.63 703.032C1154.58 706.04 1152.41 708.92 1150.1 711.672C1147.8 714.36 1145.37 716.76 1142.81 718.872C1140.31 720.92 1137.69 722.552 1134.93 723.768C1132.25 724.92 1129.49 725.496 1126.68 725.496C1124.37 725.496 1122.36 725.112 1120.63 724.344C1118.97 723.512 1117.65 722.392 1116.69 720.984C1115.8 719.512 1115.35 717.88 1115.35 716.088C1115.35 713.976 1115.89 712.216 1116.98 710.808C1118.07 709.4 1119.48 708.184 1121.21 707.16C1122.93 706.136 1124.76 705.176 1126.68 704.28C1128.66 703.32 1130.52 702.296 1132.25 701.208C1134.81 699.544 1137.05 698.008 1138.97 696.6C1140.89 695.192 1142.52 693.752 1143.86 692.28C1145.21 690.808 1146.23 689.272 1146.93 687.672C1147.64 686.072 1147.99 684.248 1147.99 682.2C1147.99 679.512 1147.29 676.984 1145.88 674.616C1144.47 672.184 1142.39 670.2 1139.64 668.664C1136.89 667.128 1133.56 666.36 1129.65 666.36C1125.69 666.36 1122.26 667.096 1119.38 668.568C1116.5 670.04 1114.26 672.024 1112.66 674.52C1111.06 676.952 1110.26 679.608 1110.26 682.488C1110.26 684.792 1110.77 686.904 1111.8 688.824C1112.89 690.744 1114.17 692.536 1115.64 694.2C1117.11 695.864 1118.52 697.464 1119.86 699ZM1204.37 667.8V735H1218.1V667.8H1204.37ZM1212.73 679.416H1226.07C1229.72 679.416 1232.6 680.248 1234.71 681.912C1236.82 683.512 1237.88 685.944 1237.88 689.208C1237.88 692.408 1236.82 694.84 1234.71 696.504C1232.6 698.168 1229.72 699 1226.07 699H1212.73V710.616H1226.07C1231.38 710.616 1235.89 709.752 1239.61 708.024C1243.38 706.296 1246.26 703.832 1248.25 700.632C1250.23 697.368 1251.22 693.56 1251.22 689.208C1251.22 684.792 1250.23 680.984 1248.25 677.784C1246.26 674.584 1243.38 672.12 1239.61 670.392C1235.89 668.664 1231.38 667.8 1226.07 667.8H1212.73V679.416ZM1266.62 721.272C1266.62 719.992 1266.9 718.936 1267.48 718.104C1268.06 717.208 1268.95 716.536 1270.17 716.088C1271.38 715.576 1272.95 715.32 1274.87 715.32C1277.24 715.32 1279.48 715.64 1281.59 716.28C1283.77 716.92 1285.72 717.88 1287.45 719.16V713.4C1286.81 712.632 1285.75 711.832 1284.28 711C1282.81 710.168 1280.98 709.464 1278.81 708.888C1276.7 708.312 1274.23 708.024 1271.42 708.024C1265.91 708.024 1261.66 709.272 1258.65 711.768C1255.64 714.264 1254.14 717.656 1254.14 721.944C1254.14 724.952 1254.84 727.512 1256.25 729.624C1257.72 731.672 1259.64 733.24 1262.01 734.328C1264.38 735.416 1266.94 735.96 1269.69 735.96C1272.38 735.96 1274.94 735.48 1277.37 734.52C1279.86 733.56 1281.88 732.12 1283.42 730.2C1285.02 728.28 1285.82 725.912 1285.82 723.096L1284.28 717.336C1284.28 719.448 1283.8 721.272 1282.84 722.808C1281.88 724.28 1280.63 725.432 1279.1 726.264C1277.56 727.032 1275.83 727.416 1273.91 727.416C1272.57 727.416 1271.32 727.192 1270.17 726.744C1269.08 726.232 1268.22 725.528 1267.58 724.632C1266.94 723.672 1266.62 722.552 1266.62 721.272ZM1261.82 703.32C1262.46 702.872 1263.45 702.328 1264.79 701.688C1266.14 701.048 1267.74 700.504 1269.59 700.056C1271.45 699.608 1273.4 699.384 1275.45 699.384C1276.79 699.384 1278.01 699.512 1279.1 699.768C1280.18 700.024 1281.11 700.44 1281.88 701.016C1282.71 701.592 1283.32 702.328 1283.7 703.224C1284.09 704.056 1284.28 705.08 1284.28 706.296V735H1296.28V703.704C1296.28 700.696 1295.45 698.168 1293.78 696.12C1292.12 694.008 1289.82 692.408 1286.87 691.32C1283.93 690.232 1280.57 689.688 1276.79 689.688C1272.7 689.688 1268.98 690.264 1265.66 691.416C1262.33 692.504 1259.51 693.656 1257.21 694.872L1261.82 703.32ZM1320.04 690.84H1307.85V735H1320.04V690.84ZM1333 703.8L1338.66 693.24C1337.77 692.088 1336.58 691.224 1335.11 690.648C1333.7 690.072 1332.2 689.784 1330.6 689.784C1328.3 689.784 1326.06 690.616 1323.88 692.28C1321.7 693.88 1319.94 696.056 1318.6 698.808C1317.26 701.496 1316.58 704.6 1316.58 708.12L1320.04 711.576C1320.04 709.464 1320.3 707.672 1320.81 706.2C1321.38 704.664 1322.22 703.48 1323.3 702.648C1324.39 701.816 1325.7 701.4 1327.24 701.4C1328.52 701.4 1329.58 701.624 1330.41 702.072C1331.3 702.456 1332.17 703.032 1333 703.8ZM1344.97 660.12V735H1356.97V660.12H1344.97ZM1373.19 690.84L1354.18 709.08L1375.21 735H1389.99L1369.06 709.08L1388.07 690.84H1373.19ZM1398.74 719.736L1392.69 727.512C1394.36 729.112 1396.21 730.616 1398.26 732.024C1400.37 733.368 1402.71 734.456 1405.27 735.288C1407.89 736.12 1410.77 736.536 1413.91 736.536C1418.97 736.536 1422.93 735.32 1425.81 732.888C1428.69 730.392 1430.13 726.936 1430.13 722.52C1430.13 719.832 1429.53 717.656 1428.31 715.992C1427.09 714.328 1425.46 712.952 1423.41 711.864C1421.43 710.712 1419.25 709.688 1416.89 708.792C1414.97 707.96 1413.24 707.256 1411.7 706.68C1410.23 706.104 1409.08 705.464 1408.25 704.76C1407.48 703.992 1407.09 703.128 1407.09 702.168C1407.09 701.08 1407.48 700.28 1408.25 699.768C1409.08 699.192 1410.2 698.904 1411.61 698.904C1413.72 698.904 1415.86 699.448 1418.04 700.536C1420.28 701.624 1422.2 703.032 1423.8 704.76L1429.27 697.08C1427.86 695.672 1426.23 694.456 1424.37 693.432C1422.52 692.344 1420.5 691.48 1418.33 690.84C1416.15 690.2 1413.81 689.88 1411.32 689.88C1408.37 689.88 1405.69 690.36 1403.25 691.32C1400.89 692.216 1399 693.592 1397.59 695.448C1396.18 697.24 1395.48 699.448 1395.48 702.072C1395.48 704.824 1396.09 707.096 1397.3 708.888C1398.58 710.616 1400.18 712.024 1402.1 713.112C1404.02 714.136 1406.01 715.032 1408.05 715.8C1410.23 716.504 1412.02 717.176 1413.43 717.816C1414.84 718.456 1415.89 719.192 1416.6 720.024C1417.37 720.792 1417.75 721.752 1417.75 722.904C1417.75 724.184 1417.3 725.208 1416.41 725.976C1415.51 726.68 1414.23 727.032 1412.57 727.032C1411.29 727.032 1409.91 726.776 1408.44 726.264C1407.03 725.752 1405.53 724.984 1403.93 723.96C1402.33 722.872 1400.6 721.464 1398.74 719.736Z" fill="#6D7B7D"/>
<circle cx="1317" cy="108" r="58" fill="#FF6E33" fill-opacity="0.74"/>
<rect x="1493.2" y="317.026" width="46.152" height="139.822" fill="#8F745F"/>
<ellipse cx="1516.27" cy="199.357" rx="83.8615" ry="73.3575" fill="#89AC6E"/>
<ellipse cx="1449.86" cy="283.053" rx="83.8615" ry="73.3575" fill="#89AC6E"/>
<ellipse cx="1587.19" cy="283.053" rx="83.8615" ry="73.3575" fill="#89AC6E"/>
</svg>
