<svg width="212" height="211" viewBox="0 0 212 211" fill="none" xmlns="http://www.w3.org/2000/svg">
<path d="M0.151611 10C0.151611 4.47716 4.62876 0 10.1516 0H201.152C206.674 0 211.152 4.47715 211.152 10V163.308C211.152 167.412 208.644 171.1 204.827 172.608L111.286 209.575C108.967 210.492 106.388 210.508 104.056 209.622L6.59713 172.56C2.71671 171.084 0.151611 167.364 0.151611 163.213V10Z" fill="#8F745F"/>
<ellipse cx="106.717" cy="82.0557" rx="78.8586" ry="26.6414" fill="#BFAFA2"/>
<rect x="105.27" y="81.0813" width="4.98971" height="19.328" fill="#8F745F"/>
<path d="M107.626 36.968L118.293 54.1315H96.9588L107.626 36.968Z" fill="#89AC6E"/>
<path d="M107.828 43.4424L121.118 67.9456H94.5376L107.828 43.4424Z" fill="#89AC6E"/>
<path d="M107.626 53.6799L122.956 83.2644H92.2956L107.626 53.6799Z" fill="#89AC6E"/>
<rect x="134.851" y="59.032" width="4.98971" height="19.328" fill="#8F745F"/>
<path d="M137.207 14.9194L147.874 32.083H126.54L137.207 14.9194Z" fill="#89AC6E"/>
<path d="M137.409 21.3933L150.699 45.8965H124.119L137.409 21.3933Z" fill="#89AC6E"/>
<path d="M137.207 31.6309L152.537 61.2154H121.877L137.207 31.6309Z" fill="#89AC6E"/>
<rect x="77.3055" y="59.032" width="4.98971" height="19.328" fill="#8F745F"/>
<path d="M79.6617 14.9194L90.3287 32.083H68.9946L79.6617 14.9194Z" fill="#89AC6E"/>
<path d="M79.8635 21.3933L93.1536 45.8965H66.5733L79.8635 21.3933Z" fill="#89AC6E"/>
<path d="M79.6616 31.6309L94.9919 61.2154H64.3313L79.6616 31.6309Z" fill="#89AC6E"/>
</svg>
