<svg width="211" height="211" viewBox="0 0 211 211" fill="none" xmlns="http://www.w3.org/2000/svg">
<path d="M0 10C0 4.47716 4.47715 0 10 0H201C206.523 0 211 4.47715 211 10V163.308C211 167.412 208.492 171.1 204.675 172.608L111.135 209.575C108.815 210.492 106.236 210.508 103.905 209.622L6.44551 172.56C2.5651 171.084 0 167.364 0 163.213V10Z" fill="#92B48A"/>
<ellipse cx="109.763" cy="84.187" rx="82.0556" ry="28.7727" fill="#BFBFBF"/>
<rect x="80.5524" y="49.2305" width="6.80094" height="23.5545" fill="#8F745F"/>
<circle cx="83.9528" cy="29.4083" r="12.3578" fill="#6F9651"/>
<circle cx="74.1659" cy="43.508" r="12.3578" fill="#6F9651"/>
<circle cx="94.403" cy="43.508" r="12.3578" fill="#6F9651"/>
<circle cx="83.9528" cy="29.4083" r="12.3578" fill="#6F9651"/>
<rect x="129.869" y="51.8457" width="7.35352" height="25.4683" fill="#8F745F"/>
<circle cx="133.545" cy="30.4124" r="13.3619" fill="#699349"/>
<circle cx="122.964" cy="45.658" r="13.3619" fill="#699349"/>
<circle cx="144.845" cy="45.658" r="13.3619" fill="#699349"/>
<circle cx="133.545" cy="30.4124" r="13.3619" fill="#699349"/>
<rect x="104.519" y="82.6331" width="6.67343" height="23.838" fill="#8F745F"/>
<ellipse cx="107.856" cy="62.5722" rx="12.1261" ry="12.5065" fill="#89AC6E"/>
<ellipse cx="98.2523" cy="76.8408" rx="12.1261" ry="12.5065" fill="#89AC6E"/>
<ellipse cx="118.11" cy="76.8408" rx="12.1261" ry="12.5065" fill="#89AC6E"/>
<ellipse cx="107.856" cy="62.5722" rx="12.1261" ry="12.5065" fill="#89AC6E"/>
</svg>
