<svg width="212" height="211" viewBox="0 0 212 211" fill="none" xmlns="http://www.w3.org/2000/svg">
<path d="M0.515137 10C0.515137 4.47716 4.99229 0 10.5151 0H201.515C207.038 0 211.515 4.47715 211.515 10V163.308C211.515 167.412 209.007 171.1 205.19 172.608L111.65 209.575C109.33 210.492 106.751 210.508 104.42 209.622L6.96065 172.56C3.08023 171.084 0.515137 167.364 0.515137 163.213V10Z" fill="#2E85B9"/>
<ellipse cx="113" cy="84.5" rx="79" ry="22.5" fill="#B6DBF2"/>
<ellipse cx="85.4511" cy="78.7398" rx="22.5696" ry="3.71006" fill="white"/>
<rect x="134.301" y="25.1489" width="3.68573" height="47.9837" rx="1.84286" fill="#BDAB90"/>
<rect x="135.684" y="6.39404" width="0.921432" height="7.06359" rx="0.460716" fill="#656565"/>
<rect x="132.689" y="11.509" width="7.1411" height="17.5372" rx="3.57055" fill="#9E7969"/>
<rect x="145.819" y="40.7556" width="3.68573" height="39.928" rx="1.84286" fill="#BDAB90"/>
<rect x="147.202" y="25.1494" width="0.921432" height="5.87773" rx="0.460716" fill="#656565"/>
<rect x="144.207" y="29.4058" width="7.1411" height="14.593" rx="3.57055" fill="#9E7969"/>
<rect x="157.493" y="28.8027" width="4.04241" height="47.9837" rx="2.02121" fill="#BDAB90"/>
<rect x="159.009" y="10.0479" width="1.0106" height="7.06359" rx="0.505301" fill="#656565"/>
<rect x="155.724" y="15.1628" width="7.83217" height="17.5372" rx="3.91609" fill="#9E7969"/>
</svg>
