<svg width="503" height="702" viewBox="0 0 503 702" fill="none" xmlns="http://www.w3.org/2000/svg">
<path d="M230.337 33.6531C240.14 18.0647 262.86 18.0647 272.663 33.6531L354.282 163.441C364.752 180.09 352.786 201.75 333.119 201.75H169.881C150.214 201.75 138.248 180.09 148.718 163.441L230.337 33.6531Z" fill="#2E2E2E"/>
<path d="M230.827 139.724C240.627 124.115 263.373 124.115 273.173 139.724L400.298 342.207C410.75 358.856 398.783 380.5 379.125 380.5H124.875C105.217 380.5 93.2495 358.856 103.702 342.207L230.827 139.724Z" fill="#2E2E2E"/>
<path d="M230.334 273.672C240.136 258.078 262.864 258.078 272.666 273.672L445.228 548.195C455.693 564.844 443.727 586.5 424.062 586.5H78.9381C59.2733 586.5 47.3071 564.844 57.7723 548.195L230.334 273.672Z" fill="#2E2E2E"/>
<rect x="202" y="562" width="100" height="128" fill="#2E2E2E"/>
<rect x="67" y="198" width="384" height="30" fill="#F7EAD9"/>
<rect x="67" y="380" width="384" height="29" fill="#F7EAD9"/>
</svg>
